<?xml version="1.0" encoding="UTF-8" standalone="no"?>
<svg
   xmlns:dc="http://purl.org/dc/elements/1.1/"
   xmlns:cc="http://creativecommons.org/ns#"
   xmlns:rdf="http://www.w3.org/1999/02/22-rdf-syntax-ns#"
   xmlns:svg="http://www.w3.org/2000/svg"
   xmlns="http://www.w3.org/2000/svg"
   xmlns:sodipodi="http://sodipodi.sourceforge.net/DTD/sodipodi-0.dtd"
   xmlns:inkscape="http://www.inkscape.org/namespaces/inkscape"
   viewBox="0 0 300.49375 228.93625"
   height="228.93625"
   width="300.49374"
   xml:space="preserve"
   version="1.1"
   id="svg5029"
   sodipodi:docname="Zeichen_251_-_Verbot_für_Kraftwagen_und_sonstige_mehrspurige_Kraftfahrzeuge,_StVO_1992.svg"
   inkscape:version="1.0.2-2 (e86c870879, 2021-01-15)"><sodipodi:namedview
     pagecolor="#ffffff"
     bordercolor="#666666"
     borderopacity="1"
     objecttolerance="10"
     gridtolerance="10"
     guidetolerance="10"
     inkscape:pageopacity="0"
     inkscape:pageshadow="2"
     inkscape:window-width="1920"
     inkscape:window-height="1001"
     id="namedview35"
     showgrid="false"
     inkscape:zoom="1.2374991"
     inkscape:cx="248.48955"
     inkscape:cy="52.843276"
     inkscape:window-x="-9"
     inkscape:window-y="-9"
     inkscape:window-maximized="1"
     inkscape:current-layer="g5039" /><metadata
     id="metadata5035"><rdf:RDF><cc:Work
         rdf:about=""><dc:format>image/svg+xml</dc:format><dc:type
           rdf:resource="http://purl.org/dc/dcmitype/StillImage" /><dc:title /></cc:Work></rdf:RDF></metadata><defs
     id="defs5033" /><g
     transform="matrix(1.25,0,0,-1.25,-150.25375,414.97625)"
     id="g5037"><g
       id="g5039"><path
         id="path5095"
         style="fill:#000000;fill-opacity:1;fill-rule:nonzero;stroke:none"
         d="m 168.855,331.981 c -5.695,0 -10.843,-3.371 -13.121,-8.594 l -22.64,-52.02 c -1.598,-3.683 -3.625,-7.144 -6.039,-10.355 l -3.426,-4.582 c -2.227,-2.969 -3.426,-6.59 -3.426,-10.297 v -37.199 c 0,-7.91 6.399,-14.313 14.313,-14.313 h 211.769 c 7.903,0 14.313,6.403 14.313,14.313 v 37.199 c 0,3.707 -1.196,7.328 -3.426,10.297 l -3.445,4.582 c -2.399,3.211 -4.411,6.672 -6.02,10.355 l -22.641,52.02 c -2.265,5.223 -7.425,8.594 -13.117,8.594 z m 3.461,-14.313 h 136.168 c 2.278,0 4.352,-1.328 5.262,-3.426 L 333.395,269.02 H 147.387 l 19.668,45.222 c 0.922,2.098 2.984,3.426 5.261,3.426 z m -20.632,-62.961 c 9.488,0 17.171,-7.683 17.171,-17.168 0,-9.488 -7.683,-17.152 -17.171,-17.152 -9.485,0 -17.168,7.664 -17.168,17.152 0,9.485 7.683,17.168 17.168,17.168 z m 177.433,0 c 9.5,0 17.168,-7.683 17.168,-17.168 0,-9.488 -7.668,-17.152 -17.168,-17.152 -9.472,0 -17.168,7.664 -17.168,17.152 0,9.485 7.696,17.168 17.168,17.168 z m -194.601,-65.82 v -31.481 c 0,-4.75 3.836,-8.574 8.574,-8.574 h 17.168 c 4.75,0 8.597,3.824 8.597,8.574 v 31.481 z m 177.433,0 v -31.481 c 0,-4.75 3.844,-8.574 8.594,-8.574 h 17.168 c 4.75,0 8.574,3.824 8.574,8.574 v 31.481 z" /></g></g></svg>
