<?xml version="1.0" encoding="UTF-8" standalone="no"?>
<svg xmlns:svg="http://www.w3.org/2000/svg" xmlns="http://www.w3.org/2000/svg" version="1.1"
     width="400px" height="800px" viewBox="0 0 400 800">
    <defs />
    <g style="fill:#000000;stroke:none;">
    <circle cx="188" cy="105" r="56" />
    <path d="M 22,427 C 173.667,190.333 159.333,183.667 216,182 249,183 250,192 306,236 375,286.667 370,287.333 369,343 368.667,410 373.333,405 320,430 L 320,317 273,275 273,434 161,433 160,307 C 68,449 74,441 22,427 z" />
    <path d="M 163,450 272,450 C 272,475 280,473 338,582 399,694.333 400,686.667 365,751 L 214,480 C 71,756.667 89,748.333 10,743 L 89,595 C 156.667,472.667 160.333,472.333 163,450 z" />
    </g>
</svg>
