<?xml version="1.0" encoding="UTF-8" standalone="no"?>
<svg
   xmlns:dc="http://purl.org/dc/elements/1.1/"
   xmlns:cc="http://creativecommons.org/ns#"
   xmlns:rdf="http://www.w3.org/1999/02/22-rdf-syntax-ns#"
   xmlns:svg="http://www.w3.org/2000/svg"
   xmlns="http://www.w3.org/2000/svg"
   viewBox="0 0 1381.8822 708.65668"
   height="708.65668"
   width="1381.8822"
   xml:space="preserve"
   id="svg4791"
   version="1.1"><metadata
     id="metadata4797"><rdf:RDF><cc:Work
         rdf:about=""><dc:format>image/svg+xml</dc:format><dc:type
           rdf:resource="http://purl.org/dc/dcmitype/StillImage" /><dc:title></dc:title></cc:Work></rdf:RDF></metadata><defs
     id="defs4795" /><g
     transform="matrix(1.3333333,0,0,-1.3333333,0,708.65666)"
     id="g4799"><g
       id="g4801"><path
         id="path4803"
         style="fill:#000000;fill-opacity:1;fill-rule:nonzero;stroke:none"
         d="m 47.605,42.317 v 111.082 l 80.836,52.898 -4.234,9.781 c -5.168,11.942 -7.832,24.813 -7.832,37.825 0,9.714 1.484,19.371 4.406,28.632 L 89.926,338.539 15.867,322.668 0,338.539 63.477,412.594 v 31.738 l 21.156,-21.16 c 35.984,0 69.496,-18.289 88.969,-48.547 l 52.628,-82.687 c 18.012,-2.531 36.18,-3.801 54.368,-3.801 28.433,0 56.781,3.105 84.543,9.262 l 0.363,0.062 c 5.062,0.934 10.203,1.406 15.351,1.406 16.668,0 32.961,-4.921 46.844,-14.144 l 14.067,14.066 c 11.902,11.903 28.046,18.59 44.882,18.59 28.715,0 53.852,-19.277 61.305,-47.008 l 10.106,-37.625 -39.672,-21.16 -8.449,48.25 c -2.883,16.449 -17.168,28.449 -33.868,28.449 -9.117,0 -17.863,-3.621 -24.312,-10.07 l -7.696,-7.695 c 13.801,-15.5 21.426,-35.535 21.426,-56.289 0,-9.785 -1.695,-19.492 -5.011,-28.696 L 502.52,116.086 486.648,15.582 456.625,5.289 472.496,105.793 397.613,164.223 407.305,89.926 359.695,0 h -31.738 l 47.609,89.926 -46.906,82.984 c -24.476,-5.933 -49.57,-8.929 -74.754,-8.929 -23.922,0 -47.765,2.703 -71.078,8.058 L 232.746,26.45 227.457,0 h -26.449 l 5.289,26.45 -63.477,146.632 -68.765,-40.84 V 58.188 L 47.605,42.317" /><path
         id="path4805"
         style="fill:#231f20;fill-opacity:1;fill-rule:nonzero;stroke:none"
         d="M 776.84,93.012 C 776.84,41.645 735.199,0 683.828,0 c -51.367,0 -93.012,41.645 -93.012,93.012 0,51.367 41.645,93.012 93.012,93.012 51.371,0 93.012,-41.645 93.012,-93.012 z m -23.918,0 c 0,38.16 -30.934,69.094 -69.094,69.094 -38.16,0 -69.094,-30.934 -69.094,-69.094 0,-38.16 30.934,-69.094 69.094,-69.094 38.16,0 69.094,30.934 69.094,69.094" /><path
         id="path4807"
         style="fill:#231f20;fill-opacity:1;fill-rule:nonzero;stroke:none"
         d="M 1036.41,93.012 C 1036.41,41.645 994.77,0 943.398,0 c -51.367,0 -93.011,41.645 -93.011,93.012 0,51.367 41.644,93.012 93.011,93.012 51.372,0 93.012,-41.645 93.012,-93.012 z m -23.918,0 c 0,38.16 -30.933,69.094 -69.094,69.094 -38.16,0 -69.093,-30.934 -69.093,-69.094 0,-38.16 30.933,-69.094 69.093,-69.094 38.161,0 69.094,30.934 69.094,69.094" /><path
         id="path4809"
         style="fill:#231f20;fill-opacity:1;fill-rule:nonzero;stroke:none"
         d="m 613.875,162.106 v 37.203 l -42.52,31.891 15.946,21.261 26.574,-19.933 55.805,83.711 c 5.019,6.691 12.898,10.628 21.261,10.628 h 39.864 v 26.575 h -53.153 c -8.07,0 -14.613,6.543 -14.613,14.617 0,8.07 6.543,14.613 14.613,14.613 h 53.153 v 38.535 c 0,16.879 13.679,30.563 30.558,30.563 16.879,0 30.563,-13.684 30.563,-30.563 V 305.61 H 1036.41 V 162.106 h -23.055 c -18.472,18.707 -43.667,29.23 -69.957,29.23 -26.289,0 -51.48,-10.523 -69.957,-29.23 H 753.785 c -18.473,18.707 -43.668,29.23 -69.957,29.23 -26.289,0 -51.484,-10.523 -69.957,-29.23 z m 45.176,69.094 h 34.547 l 31.89,47.832 H 690.941 L 659.051,231.2" /><path
         id="path4811"
         style="fill:#231f20;fill-opacity:1;fill-rule:nonzero;stroke:none"
         d="m 795.91,496.946 c 0,-19.079 -15.465,-34.547 -34.547,-34.547 -19.078,0 -34.547,15.468 -34.547,34.547 0,19.082 15.469,34.546 34.547,34.546 19.082,0 34.547,-15.464 34.547,-34.546" /><path
         id="path4813"
         style="fill:#231f20;fill-opacity:1;fill-rule:nonzero;stroke:none"
         d="m 600.586,162.106 -122.242,31.89 v 13.286 l 122.242,-31.891 v -13.285" /></g></g></svg>