<?xml version="1.0" encoding="UTF-8" standalone="no"?>
<!-- Created with Inkscape (http://www.inkscape.org/) -->
<svg
   xmlns:svg="http://www.w3.org/2000/svg"
   xmlns="http://www.w3.org/2000/svg"
   version="1.0"
   width="970"
   height="270"
   id="svg2">
  <defs
     id="defs4" />
  <g
     id="layer1">
    <path
       d="M 948.58272,181.11452 L 948.58272,212.00923 L 904.55776,212.00923 C 901.60557,200.82583 896.46811,190.20899 885.45863,181.11452 L 948.58272,181.11452 z "
       style="fill:black;fill-opacity:1;fill-rule:evenodd;stroke:none;stroke-width:1px;stroke-linecap:butt;stroke-linejoin:miter;stroke-opacity:1"
       id="path11867" />
    <path
       d="M 187.42838,5.0734714 L 532.683,5.0734714 L 532.683,169.79304 L 187.42838,169.79304 L 187.42838,5.0734714 z "
       style="fill:black;fill-opacity:1;fill-rule:evenodd;stroke:none;stroke-width:1px;stroke-linecap:butt;stroke-linejoin:miter;stroke-opacity:1"
       id="path10081" />
    <path
       d="M 579.57758,4.9475632 L 948.64201,4.9475632 L 948.64201,169.66713 L 579.57758,169.66713 L 579.57758,4.9475632 z "
       style="fill:black;fill-opacity:1;fill-rule:evenodd;stroke:none;stroke-width:1px;stroke-linecap:butt;stroke-linejoin:miter;stroke-opacity:1"
       id="path10968" />
    <path
       d="M 900.1042 233.89624 A 37.971203 37.971203 0 1 1  824.16179,233.89624 A 37.971203 37.971203 0 1 1  900.1042 233.89624 z"
       transform="matrix(1.090164,0,0,1.090164,-86.75925,-32.25117)"
       style="opacity:1;fill:black;fill-opacity:1;fill-rule:nonzero;stroke:none;stroke-width:34.10599899;stroke-linecap:round;stroke-linejoin:round;stroke-miterlimit:4;stroke-dasharray:none;stroke-dashoffset:0;stroke-opacity:1"
       id="path10970" />
    <path
       d="M 900.1042 233.89624 A 37.971203 37.971203 0 1 1  824.16179,233.89624 A 37.971203 37.971203 0 1 1  900.1042 233.89624 z"
       transform="matrix(1.090164,0,0,1.090164,-288.7536,-32.29364)"
       style="opacity:1;fill:black;fill-opacity:1;fill-rule:nonzero;stroke:none;stroke-width:34.10599899;stroke-linecap:round;stroke-linejoin:round;stroke-miterlimit:4;stroke-dasharray:none;stroke-dashoffset:0;stroke-opacity:1"
       id="path10972" />
    <path
       d="M 900.1042 233.89624 A 37.971203 37.971203 0 1 1  824.16179,233.89624 A 37.971203 37.971203 0 1 1  900.1042 233.89624 z"
       transform="matrix(1.090164,0,0,1.090164,-525.918,-32.41613)"
       style="opacity:1;fill:black;fill-opacity:1;fill-rule:nonzero;stroke:none;stroke-width:34.10599899;stroke-linecap:round;stroke-linejoin:round;stroke-miterlimit:4;stroke-dasharray:none;stroke-dashoffset:0;stroke-opacity:1"
       id="path10974" />
    <path
       d="M 900.1042 233.89624 A 37.971203 37.971203 0 1 1  824.16179,233.89624 A 37.971203 37.971203 0 1 1  900.1042 233.89624 z"
       transform="matrix(1.090164,0,0,1.090164,-846.4946,-32.29364)"
       style="opacity:1;fill:black;fill-opacity:1;fill-rule:nonzero;stroke:none;stroke-width:34.10599899;stroke-linecap:round;stroke-linejoin:round;stroke-miterlimit:4;stroke-dasharray:none;stroke-dashoffset:0;stroke-opacity:1"
       id="path10976" />
    <path
       d="M 555.58979,180.92026 L 555.58979,211.81497 L 599.61475,211.81497 C 602.56694,200.63157 607.7044,190.01473 618.71388,180.92026 L 555.58979,180.92026 z "
       style="fill:black;fill-opacity:1;fill-rule:evenodd;stroke:none;stroke-width:1px;stroke-linecap:butt;stroke-linejoin:miter;stroke-opacity:1"
       id="path10980" />
    <path
       d="M 684.37536,181.11451 C 695.46489,190.5657 698.81792,200.8602 702.48185,212.00922 L 801.50106,212.00922 C 804.45325,200.82582 809.59071,190.20898 820.60019,181.11451 L 684.37536,181.11451 z "
       style="fill:black;fill-opacity:1;fill-rule:evenodd;stroke:none;stroke-width:1px;stroke-linecap:butt;stroke-linejoin:miter;stroke-opacity:1"
       id="path11871" />
    <path
       d="M 532.6833,180.77713 L 532.84234,212.30802 L 498.57982,222.89377 L 466.55091,222.96412 C 468.00842,210.31082 458.55157,189.47039 445.86132,180.93618 L 532.6833,180.77713 z "
       style="fill:black;fill-opacity:1;fill-rule:evenodd;stroke:none;stroke-width:1px;stroke-linecap:butt;stroke-linejoin:miter;stroke-opacity:1"
       id="path11875" />
    <path
       d="M 164.38292,46.440644 L 60.571013,51.8735 C 56.231301,53.218337 52.575838,55.171397 50.919898,58.901809 L 22.700623,132.93384 L 21.613992,140.70413 L 21.621535,212.97526 C 22.503535,219.59402 26.862349,221.74259 31.897406,223.02171 L 40.397747,223.02171 C 40.397747,154.18672 147.11778,154.36604 147.11778,223.02171 L 361.41037,223.02171 C 359.95286,210.36841 369.40971,189.52798 382.09996,180.99377 L 164.61964,180.96791 L 164.38292,46.440644 z "
       style="fill:black;fill-opacity:1;fill-rule:evenodd;stroke:none;stroke-width:1px;stroke-linecap:butt;stroke-linejoin:miter;stroke-opacity:1"
       id="path11879" />
    <path
       d="M 122.58432,126.2727 L 122.58432,67.11733 L 62.754174,71.165986 C 60.574695,71.531761 59.010637,72.974522 58.030742,75.439568 L 38.912086,126.2727 C 38.590374,128.0721 37.82559,129.87151 38.912086,131.67091 C 39.608067,133.31708 40.918089,134.14453 42.510892,134.59494 L 122.58432,126.2727 z "
       style="fill:white;fill-opacity:1;fill-rule:evenodd;stroke:none;stroke-width:1px;stroke-linecap:butt;stroke-linejoin:miter;stroke-opacity:1"
       id="path11883" />
  </g>
</svg>
