<?xml version="1.0" encoding="UTF-8" standalone="no"?>
<svg
   xmlns:dc="http://purl.org/dc/elements/1.1/"
   xmlns:cc="http://creativecommons.org/ns#"
   xmlns:rdf="http://www.w3.org/1999/02/22-rdf-syntax-ns#"
   xmlns:svg="http://www.w3.org/2000/svg"
   xmlns="http://www.w3.org/2000/svg"
   viewBox="0 0 1324.2622 896"
   height="896"
   width="1324.2622"
   xml:space="preserve"
   version="1.1"
   id="svg10215"><metadata
     id="metadata10221"><rdf:RDF><cc:Work
         rdf:about=""><dc:format>image/svg+xml</dc:format><dc:type
           rdf:resource="http://purl.org/dc/dcmitype/StillImage" /><dc:title></dc:title></cc:Work></rdf:RDF></metadata><defs
     id="defs10219" /><g
     transform="matrix(1.25,0,0,-1.25,0,895.99999)"
     id="g10223"><g
       id="g10225"><path
         id="path10227"
         style="fill:#2b2a29;fill-opacity:1;fill-rule:evenodd;stroke:none"
         d="m 1023.203,716.78 c -5.605,0.266 -11.273,-2.043 -12.871,-7.281 l 0,-76.375 -48.727,0 c -0.382,26.156 0.774,52.508 -0.558,78.535 -2.766,4.188 -8.258,5.153 -12.949,4.989 -7.172,0.281 -13.032,-5.594 -10.903,-12.844 l 0,-70.68 -24.414,0 c 0.43,-32.332 -0.875,-64.734 0.696,-97.019 3.418,-28.879 26.101,-53.973 54.273,-60.825 0.809,-29.652 -26.234,-55.988 -55.828,-54.613 -44.031,0.387 -84.496,-35.719 -89.086,-79.527 -2.41,-23.574 1.109,-47.543 -1.906,-71.039 -4.559,-24.797 -28.278,-43.852 -53.387,-43.574 l 0.09,84.191 c 0,11.824 -3.832,23.391 -10.965,32.859 l -10.965,14.637 c -7.68,10.254 -14.113,21.305 -19.234,33.066 l -72.293,166.118 c -7.235,16.66 -23.715,27.429 -41.918,27.429 l -456.899,0 c -18.183,0 -34.625,-10.769 -41.902,-27.429 L 41.164,391.28 C 36.043,379.519 29.578,368.468 21.855,358.214 L 10.922,343.577 C 3.816,334.109 0,322.542 0,310.718 L 0,191.905 c 0,-25.253 20.418,-45.703 45.707,-45.703 l 676.219,0 c 24.488,0 44.437,19.309 45.57,43.528 l 0,0.472 c 44.008,-0.902 84.875,34.563 90.141,78.258 2.691,24.356 -1.305,49.152 2.265,73.402 5.34,26.04 31.602,44.668 57.879,42.508 44.004,1.348 83.051,38.871 86.039,82.797 -2.304,8.91 5.164,9.516 11.719,11.961 28.512,12.367 46.223,43.692 43.617,74.453 l 0,79.543 -24.41,0 c -0.398,26.141 0.766,52.539 -0.578,78.535 -2.309,3.153 -6.613,4.911 -10.965,5.121 z m -856.805,-177.644 434.809,0 c 7.281,0 13.922,-4.246 16.82,-10.945 l 62.739,-144.411 -593.973,0 62.797,144.411 c 2.961,6.699 9.543,10.945 16.808,10.945 z m -65.89,-201.047 c 30.304,0 54.851,-24.543 54.851,-54.832 0,-30.285 -24.547,-54.746 -54.851,-54.746 -30.285,0 -54.801,24.461 -54.801,54.746 0,30.289 24.516,54.832 54.801,54.832 z m 566.586,0 c 30.332,0 54.832,-24.543 54.832,-54.832 0,-30.285 -24.5,-54.746 -54.832,-54.746 -30.231,0 -54.836,24.461 -54.836,54.746 0,30.289 24.605,54.832 54.836,54.832 z M 45.707,127.913 l 0,-100.539 c 0,-15.179 12.25,-27.375 27.371,-27.375 l 54.805,0 c 15.179,0 27.476,12.196 27.476,27.375 l 0,100.539 -109.652,0 z m 566.551,0 0,-100.539 c 0,-15.179 12.312,-27.375 27.465,-27.375 l 54.836,0 c 15.16,0 27.367,12.196 27.367,27.375 l 0,100.539 -109.668,0 z" /></g></g></svg>