<?xml version="1.0" encoding="UTF-8" standalone="no"?>
<!-- Created with Inkscape (http://www.inkscape.org/) -->
<svg
   xmlns:svg="http://www.w3.org/2000/svg"
   xmlns="http://www.w3.org/2000/svg"
   xmlns:xlink="http://www.w3.org/1999/xlink"
   version="1.0"
   width="630"
   height="630"
   id="svg2">
  <defs
     id="defs9">
    <linearGradient
       id="linearGradient15429">
      <stop
         style="stop-color:black;stop-opacity:1"
         offset="0"
         id="stop15431" />
      <stop
         style="stop-color:black;stop-opacity:0"
         offset="1"
         id="stop15433" />
    </linearGradient>
    <linearGradient
       id="linearGradient14529">
      <stop
         style="stop-color:black;stop-opacity:1"
         offset="0"
         id="stop14531" />
      <stop
         style="stop-color:black;stop-opacity:0"
         offset="1"
         id="stop14533" />
    </linearGradient>
    <linearGradient
       id="linearGradient13630">
      <stop
         style="stop-color:black;stop-opacity:1"
         offset="0"
         id="stop13632" />
      <stop
         style="stop-color:black;stop-opacity:0.84516132"
         offset="1"
         id="stop13634" />
    </linearGradient>
    <radialGradient
       cx="250.66608"
       cy="122.92351"
       r="105.1599"
       fx="250.66608"
       fy="122.92351"
       id="radialGradient13640"
       xlink:href="#linearGradient13630"
       gradientUnits="userSpaceOnUse"
       gradientTransform="matrix(1,0,0,0.292501,0,86.96823)" />
    <linearGradient
       x1="352.95981"
       y1="278.13309"
       x2="367.96255"
       y2="278.13309"
       id="linearGradient14535"
       xlink:href="#linearGradient14529"
       gradientUnits="userSpaceOnUse" />
    <radialGradient
       cx="250.66608"
       cy="122.92351"
       r="105.1599"
       fx="250.66608"
       fy="122.92351"
       id="radialGradient14540"
       xlink:href="#linearGradient13630"
       gradientUnits="userSpaceOnUse"
       gradientTransform="matrix(-0.665756,-3.239482e-2,0,0.293195,604.2449,51.89118)" />
    <linearGradient
       x1="345.51462"
       y1="559.466"
       x2="376.58347"
       y2="559.466"
       id="linearGradient15435"
       xlink:href="#linearGradient15429"
       gradientUnits="userSpaceOnUse" />
  </defs>
  <path
     d="M 99.457658,490.01371 C 98.125062,489.10181 105.46581,476.41705 116.8674,468.27001 C 121.28388,465.1142 115.0704,460.27406 115.0704,454.79251 C 115.0704,446.3601 119.27708,446.23879 117.9456,437.00221 C 116.508,427.02949 114.5313,430.26743 114.5313,420.29011 C 114.5313,412.33878 109.73407,406.11531 114.3516,400.34341 C 118.43649,395.23729 118.87695,385.93456 122.97719,381.83431 C 132.97005,371.84146 149.25439,364.16846 150.29159,355.23871 C 151.20577,347.36811 136.99379,333.86307 136.99379,315.34531 C 136.99379,306.72147 136.91239,290.00991 139.68929,283.17901 C 142.22122,276.95071 144.70584,270.51502 153.16679,260.89621 C 157.5834,255.8752 152.09985,232.02077 154.06529,225.31561 C 157.29063,214.31225 165.74579,200.73708 165.74579,189.19592 C 165.74579,189.19592 166.06723,168.5832 170.41799,152.35742 C 171.5546,148.11852 173.29319,140.74767 173.29319,134.74682 C 173.29319,128.43993 172.02845,120.02511 174.73079,114.62042 C 176.24813,111.58574 178.62974,106.46313 179.94209,103.83842 C 184.65958,94.806386 190.24112,85.855944 196.65419,77.961621 C 200.26018,73.454134 212.33024,53.088268 212.46779,46.873523 C 212.85053,29.580706 212.99643,28.049386 227.20319,15.426024 C 235.23998,8.2849649 241.617,10.272605 248.79101,7.8768508 L 318.49079,3.2064241 L 318.49079,505.6476 L 99.457658,490.01371 z "
     style="fill:#999;fill-opacity:1;fill-rule:evenodd;stroke:none;stroke-width:1px;stroke-linecap:butt;stroke-linejoin:miter;stroke-opacity:1"
     id="path10061" />
  <path
     d="M 318.42839,3.2064241 L 318.42839,505.6476 L 544.13158,450.30001 C 550.94655,441.32974 543.51554,431.94773 542.69398,422.26681 C 541.43324,407.41077 558.25215,383.51024 535.35089,374.31894 C 525.65387,370.42709 531.91198,360.09115 531.91198,349.66801 C 531.91198,343.22142 531.19318,336.23905 531.19318,329.54161 C 531.19318,320.32704 519.4045,307.69354 516.31011,298.94339 C 510.38355,282.18461 523.12871,270.61702 502.44118,252.63001 C 493.62626,230.48553 493.90308,211.4438 500.28478,186.50042 C 503.18312,169.30821 482.17082,152.62038 479.24268,135.46562 C 476.37823,118.2789 480.82319,98.312438 474.40798,82.274421 C 470.31463,72.041042 464.21828,66.334316 457.15678,59.272822 C 454.41697,52.423295 448.03188,44.47069 443.49958,38.427623 C 438.46156,31.71026 440.17872,25.04356 433.43638,18.301224 C 427.94314,12.807978 417.80658,11.113224 410.43478,11.113224 C 409.23678,11.113224 408.03878,11.113224 406.84078,11.113224 L 318.42839,3.2064241 z "
     style="fill:white;fill-opacity:1;fill-rule:evenodd;stroke:none;stroke-width:1px;stroke-linecap:butt;stroke-linejoin:miter;stroke-opacity:1"
     id="path10063" />
  <path
     d="M 318.06303,504.3138 L 352.14578,496.08033 C 347.80316,566.8739 367.70883,533.25756 368.90261,492.13021 L 546.3502,449.16578"
     style="fill:none;fill-opacity:1;fill-rule:evenodd;stroke:black;stroke-width:3;stroke-linecap:butt;stroke-linejoin:miter;stroke-miterlimit:4;stroke-dasharray:none;stroke-opacity:1"
     id="path10067" />
  <path
     d="M 99.870389,488.92366 L 319.62805,504.3138 L 318.34554,4.1340408"
     style="fill:none;fill-opacity:1;fill-rule:evenodd;stroke:black;stroke-width:3;stroke-linecap:butt;stroke-linejoin:miter;stroke-miterlimit:4;stroke-dasharray:none;stroke-opacity:1"
     id="path10065" />
  <path
     d="M 99.506322,489.67057 L 20.979978,560.11858 L 20.272682,583.08157 L 326.58485,618.5185 L 400.57673,610.86417 L 616.13922,509.16002 L 615.82014,491.07802 L 546.00905,448.84747 L 320.20624,504.97924 L 99.506322,489.67057 z "
     style="fill:white;fill-opacity:1;fill-rule:evenodd;stroke:none;stroke-width:1px;stroke-linecap:butt;stroke-linejoin:miter;stroke-opacity:1"
     id="path11843" />
  <path
     d="M 20.520195,560.74434 L 321.91057,592.80715 C 348.84212,595.50661 375.20124,594.38991 400.14381,583.82956 L 615.60586,491.48868"
     style="fill:none;fill-opacity:1;fill-rule:evenodd;stroke:black;stroke-width:3;stroke-linecap:butt;stroke-linejoin:miter;stroke-miterlimit:4;stroke-dasharray:none;stroke-opacity:1"
     id="path10954" />
  <path
     d="M 20.312837,574.42256 L 20.419146,593.20909 L 318.70271,626.69679 C 352.27397,630.78325 379.87937,625.2174 404.65449,617.99454 L 616.10556,515.94269 L 616.18974,499.47317 L 403.19651,595.5555 C 380.48053,606.93144 345.17938,606.33627 319.18111,605.28288 L 20.312837,574.42256 z "
     style="fill:black;fill-opacity:1;fill-rule:evenodd;stroke:none;stroke-width:1px;stroke-linecap:butt;stroke-linejoin:miter;stroke-opacity:1"
     id="path11841" />
  <path
     d="M 355.32598,143.70541 L 152.1725,153.18028 C 148.96993,153.27946 146.10884,150.55382 146.00618,147.80908 L 146.11274,113.13672 C 146.11333,109.8594 148.9911,106.16527 151.72167,105.8451 L 354.48464,92.664105 L 354.45516,96.922416 L 152.76203,110.71825 C 151.33708,110.95714 151.73257,111.8787 151.67039,112.62863 L 151.87507,147.42481 C 152.15867,147.8687 152.41228,148.33058 153.58077,148.24354 L 354.78453,138.35051 L 355.32598,143.70541 z "
     style="fill:url(#radialGradient13640);fill-opacity:1;fill-rule:nonzero;stroke:black;stroke-width:1px;stroke-linecap:butt;stroke-linejoin:miter;stroke-opacity:1"
     id="path11847" />
  <path
     d="M 367.6842,97.252343 L 502.93486,113.33082 C 505.06699,113.53398 506.97177,110.89457 507.04012,108.14663 L 506.96918,73.388511 C 506.96879,70.103392 505.05289,66.307268 503.235,65.897881 L 368.24433,46.117123 L 368.26396,50.386496 L 502.54237,70.748897 C 503.49105,71.034515 503.22774,71.945451 503.26914,72.699176 L 503.13288,107.57133 C 502.94406,108.00707 502.77522,108.46185 501.9973,108.33675 L 368.04468,91.902267 L 367.6842,97.252343 z "
     style="fill:url(#radialGradient14540);fill-opacity:1;fill-rule:nonzero;stroke:black;stroke-width:0.81690663px;stroke-linecap:butt;stroke-linejoin:miter;stroke-opacity:1"
     id="path14538" />
  <path
     d="M 349.5542,537.87638 L 346.01461,573.82492 C 355.37501,582.47487 365.25517,584.36788 376.08346,573.93523 L 372.71844,538.21695 C 364.28669,547.84591 355.07476,543.70998 349.5542,537.87638 z "
     style="fill:url(#linearGradient15435);fill-opacity:1;fill-rule:evenodd;stroke:black;stroke-width:1px;stroke-linecap:butt;stroke-linejoin:miter;stroke-opacity:1"
     id="path14542" />
  <path
     d="M 353.4598,24.250338 L 353.5345,534.28324 C 356.34819,539.80556 365.3927,539.75878 367.42887,534.28324 L 367.42887,24.051135 C 368.08248,19.667647 359.0785,12.541002 353.4598,24.250338 z "
     style="fill:url(#linearGradient14535);fill-opacity:1;fill-rule:evenodd;stroke:black;stroke-width:1px;stroke-linecap:butt;stroke-linejoin:miter;stroke-opacity:1"
     id="path13642" />
  <path
     d="M 349.24468,536.67688 L 352.99526,533.03662 C 354.79649,537.17171 365.84797,544.21145 367.99756,532.48506 C 369.93323,533.88368 372.54885,534.26238 372.85124,538.11092 C 366.6737,544.9429 358.16464,547.49082 349.24468,536.67688 z "
     style="fill:gray;fill-opacity:1;fill-rule:evenodd;stroke:black;stroke-width:1px;stroke-linecap:butt;stroke-linejoin:miter;stroke-opacity:1"
     id="path15437" />
  <path
     d="M 175.90257,109.48584 L 176.71693,147.21803"
     style="fill:none;fill-opacity:1;fill-rule:evenodd;stroke:black;stroke-width:4;stroke-linecap:butt;stroke-linejoin:miter;stroke-miterlimit:4;stroke-dasharray:none;stroke-opacity:1"
     id="path15451" />
  <path
     d="M 324.22337,99.449393 L 325.09599,139.88138"
     style="fill:none;fill-opacity:1;fill-rule:evenodd;stroke:black;stroke-width:4.28620577;stroke-linecap:butt;stroke-linejoin:miter;stroke-miterlimit:4;stroke-dasharray:none;stroke-opacity:1"
     id="path17223" />
  <path
     d="M 158.51392,114.56497 L 343.51935,102.39671 C 345.02394,102.43635 346.54771,103.34624 346.63942,104.58076 L 346.69198,133.59738 C 346.58538,135.66131 345.15652,135.96894 343.83136,136.09343 L 158.52567,144.91126 C 155.80776,144.70259 156.18827,143.50065 156.02961,142.48509 L 155.97706,116.95311 C 155.83006,115.87346 156.38308,114.99381 158.51392,114.56497 z "
     style="fill:white;fill-opacity:1;fill-rule:evenodd;stroke:black;stroke-width:1px;stroke-linecap:butt;stroke-linejoin:miter;stroke-opacity:1"
     id="path15439" />
  <path
     d="M 174.31964,141.94921 L 174.31964,138.80499 L 182.11249,138.80499 L 182.11249,143.27309 C 182.11248,145.44948 181.35526,147.28988 179.84083,148.79429 C 178.32638,150.2987 176.47595,151.0509 174.28955,151.05091 C 172.56448,151.0509 171.11774,150.63719 169.94932,149.80976 C 168.78089,148.98234 167.94093,148.08722 167.42943,147.12439 C 167.06837,146.48251 166.81764,145.78045 166.67723,145.01821 C 166.53681,144.25598 166.46661,142.556 166.46661,139.91825 C 166.46661,137.28053 166.53681,135.58055 166.67723,134.8183 C 166.81764,134.05608 167.06837,133.35402 167.42943,132.71212 C 167.94093,131.75934 168.78089,130.86171 169.94932,130.01922 C 171.11774,129.17677 172.56448,128.75554 174.28955,128.75552 C 176.36563,128.75554 178.08316,129.39491 179.44216,130.67364 C 180.80113,131.95241 181.65112,133.47939 181.99214,135.25458 L 178.48686,135.25458 C 178.21605,134.41212 177.71208,133.67496 176.97493,133.04309 C 176.23775,132.41126 175.34263,132.09533 174.28955,132.09531 C 173.50725,132.09533 172.83026,132.2558 172.25859,132.57672 C 171.68691,132.89768 171.23559,133.26877 170.90462,133.68999 C 170.47335,134.25165 170.17999,134.86846 170.02454,135.54042 C 169.86908,136.2124 169.79135,137.67168 169.79136,139.91825 C 169.79135,142.17488 169.86908,143.63917 170.02454,144.31114 C 170.17999,144.98312 170.47335,145.58989 170.90462,146.13148 C 171.23559,146.57278 171.68691,146.95139 172.25859,147.26731 C 172.83026,147.58324 173.50725,147.7412 174.28955,147.7412 C 175.55325,147.7412 176.61887,147.30994 177.48643,146.4474 C 178.35396,145.58488 178.78773,144.46159 178.78774,143.07752 L 178.78774,141.94921 L 174.31964,141.94921 z M 184.94079,143.04743 C 184.94079,141.37253 185.07117,140.12387 185.33194,139.30145 C 185.5927,138.47905 186.02396,137.73687 186.62573,137.07492 C 187.05699,136.60355 187.65124,136.15222 188.40846,135.72094 C 189.16568,135.2897 190.15608,135.07406 191.37967,135.07405 C 192.5832,135.07406 193.56608,135.2897 194.32832,135.72094 C 195.09055,136.15222 195.6873,136.60355 196.11857,137.07492 C 196.72032,137.73687 197.15159,138.47905 197.41237,139.30145 C 197.67312,140.12387 197.8035,141.37253 197.80351,143.04743 C 197.8035,144.75244 197.67312,146.01614 197.41237,146.83855 C 197.15159,147.66097 196.72032,148.40314 196.11857,149.06508 C 195.6873,149.54649 195.09055,149.99782 194.32832,150.41905 C 193.56608,150.84029 192.5832,151.0509 191.37967,151.05091 C 190.15608,151.0509 189.16568,150.84029 188.40846,150.41905 C 187.65124,149.99782 187.05699,149.54649 186.62573,149.06508 C 186.02396,148.40314 185.5927,147.66097 185.33194,146.83855 C 185.07117,146.01614 184.94079,144.75244 184.94079,143.04743 L 184.94079,143.04743 z M 194.67434,143.07752 C 194.67433,141.94421 194.61666,141.14687 194.50133,140.6855 C 194.38598,140.22416 194.1879,139.78287 193.90709,139.36162 C 193.35546,138.5994 192.51299,138.21828 191.37967,138.21827 C 190.22628,138.21828 189.38381,138.5994 188.85226,139.36162 C 188.55137,139.78287 188.34828,140.22416 188.24297,140.6855 C 188.13766,141.14687 188.08501,141.93418 188.08501,143.04743 C 188.08501,144.19079 188.13766,144.99565 188.24297,145.46201 C 188.34828,145.92839 188.55137,146.36717 188.85226,146.77837 C 189.38381,147.54061 190.22628,147.92173 191.37967,147.92173 C 192.51299,147.92173 193.35546,147.54061 193.90709,146.77837 C 194.1879,146.36717 194.38598,145.93089 194.50133,145.46954 C 194.61666,145.00819 194.67433,144.21085 194.67434,143.07752 L 194.67434,143.07752 z M 213.20869,144.25096 L 203.49019,144.25096 C 203.49019,145.53473 203.83871,146.49756 204.53576,147.13943 C 205.2328,147.78132 206.12291,148.10226 207.20609,148.10226 C 208.49987,148.10226 209.64323,147.60079 210.63615,146.59784 L 212.90781,148.53854 C 212.13553,149.44119 211.26548,150.08557 210.29766,150.47171 C 209.32981,150.85784 208.31935,151.0509 207.26627,151.05091 C 205.66155,151.0509 204.107,150.53188 202.60259,149.49384 C 201.09817,148.4558 200.34597,146.33207 200.34597,143.12265 C 200.34597,140.08375 201.0405,137.98259 202.42958,136.81917 C 203.81865,135.65577 205.27041,135.07406 206.78485,135.07405 C 208.49987,135.07406 209.99927,135.66831 211.28305,136.85678 C 212.5668,138.04527 213.20868,139.64747 213.20869,141.66337 L 213.20869,144.25096 z M 203.49019,141.66337 L 210.07952,141.66337 C 210.02936,140.48994 209.69839,139.59231 209.0866,138.97048 C 208.4748,138.34866 207.70755,138.03775 206.78485,138.03774 C 205.85211,138.03775 205.07734,138.34866 204.46054,138.97048 C 203.84372,139.59231 203.52028,140.48994 203.49019,141.66337 L 203.49019,141.66337 z M 216.69893,135.25458 L 216.69893,130.51568 L 219.84315,130.51568 L 219.84315,135.25458 L 222.12986,135.25458 L 222.12986,137.66164 L 219.84315,137.66164 L 219.84315,146.74829 C 219.84315,147.53058 220.21424,147.92173 220.95642,147.92173 L 222.12986,147.92173 L 222.12986,150.87038 L 220.49005,150.87038 C 219.39684,150.87038 218.49169,150.53941 217.77459,149.87746 C 217.05748,149.21552 216.69893,148.26775 216.69893,147.03412 L 216.69893,137.66164 L 215.13434,137.66164 L 215.13434,135.25458 L 216.69893,135.25458 z M 225.06346,150.87038 L 225.06346,128.95109 L 228.20768,128.95109 L 228.20768,136.92447 L 228.26786,136.92447 C 229.24071,135.69087 230.59468,135.07406 232.32977,135.07405 C 233.54332,135.07406 234.71425,135.53542 235.84257,136.45811 C 236.97087,137.38083 237.53502,138.72477 237.53504,140.48993 L 237.53504,150.87038 L 234.39082,150.87038 L 234.39082,141.57311 C 234.39081,140.52003 234.09745,139.69762 233.51074,139.10587 C 232.92401,138.51415 232.19437,138.21828 231.32182,138.21827 C 230.41916,138.21828 229.67448,138.51415 229.08776,139.10587 C 228.50104,139.69762 228.20768,140.52003 228.20768,141.57311 L 228.20768,150.87038 L 225.06346,150.87038 z M 253.70747,144.25096 L 243.98897,144.25096 C 243.98897,145.53473 244.33749,146.49756 245.03454,147.13943 C 245.73158,147.78132 246.62169,148.10226 247.70487,148.10226 C 248.99865,148.10226 250.14201,147.60079 251.13493,146.59784 L 253.40659,148.53854 C 252.63431,149.44119 251.76426,150.08557 250.79644,150.47171 C 249.82859,150.85784 248.81812,151.0509 247.76505,151.05091 C 246.16033,151.0509 244.60577,150.53188 243.10137,149.49384 C 241.59695,148.4558 240.84475,146.33207 240.84475,143.12265 C 240.84475,140.08375 241.53928,137.98259 242.92836,136.81917 C 244.31743,135.65577 245.76919,135.07406 247.28363,135.07405 C 248.99865,135.07406 250.49805,135.66831 251.78183,136.85678 C 253.06558,138.04527 253.70746,139.64747 253.70747,141.66337 L 253.70747,144.25096 z M 243.98897,141.66337 L 250.5783,141.66337 C 250.52814,140.48994 250.19717,139.59231 249.58538,138.97048 C 248.97358,138.34866 248.20633,138.03775 247.28363,138.03774 C 246.35089,138.03775 245.57612,138.34866 244.95932,138.97048 C 244.3425,139.59231 244.01905,140.48994 243.98897,141.66337 L 243.98897,141.66337 z M 255.28711,148.26774 L 257.48355,146.10139 C 258.84755,147.4353 260.48735,148.10226 262.40298,148.10226 C 263.29559,148.10226 264.03275,147.93427 264.61446,147.59828 C 265.19616,147.2623 265.48701,146.76333 265.48702,146.10139 C 265.48701,145.18872 264.85014,144.67722 263.57642,144.56689 L 260.8083,144.31114 C 259.5145,144.21085 258.44135,143.7846 257.58886,143.03239 C 256.73636,142.28019 256.31011,141.23212 256.31011,139.88817 C 256.31011,138.30353 256.86674,137.10502 257.98001,136.29262 C 259.09327,135.48025 260.47732,135.07406 262.13218,135.07405 C 263.49617,135.07406 264.6646,135.26713 265.63746,135.65325 C 266.6103,136.03939 267.48286,136.5534 268.25514,137.19527 L 266.31445,139.48198 C 265.69261,139.06075 265.05073,138.71474 264.3888,138.44393 C 263.72685,138.17315 262.97465,138.03775 262.13218,138.03774 C 261.12924,138.03775 260.43219,138.21577 260.04105,138.57181 C 259.6499,138.92786 259.45432,139.37668 259.45433,139.91825 C 259.45432,140.25927 259.59975,140.57519 259.89061,140.86603 C 260.18146,141.1569 260.72304,141.33241 261.51537,141.39258 L 264.10296,141.57311 C 265.71769,141.68344 266.87608,142.1824 267.57815,143.07 C 268.2802,143.95761 268.63123,145.01822 268.63124,146.25183 C 268.63123,147.78633 268.00439,148.9698 266.75073,149.80224 C 265.49704,150.63468 263.96756,151.0509 262.16227,151.05091 C 259.56465,151.0509 257.27293,150.12318 255.28711,148.26774 L 255.28711,148.26774 z M 272.00112,135.25458 L 272.00112,130.51568 L 275.14535,130.51568 L 275.14535,135.25458 L 277.43205,135.25458 L 277.43205,137.66164 L 275.14535,137.66164 L 275.14535,146.74829 C 275.14534,147.53058 275.51643,147.92173 276.25861,147.92173 L 277.43205,147.92173 L 277.43205,150.87038 L 275.79224,150.87038 C 274.69903,150.87038 273.79388,150.53941 273.07678,149.87746 C 272.35967,149.21552 272.00112,148.26775 272.00112,147.03412 L 272.00112,137.66164 L 270.43654,137.66164 L 270.43654,135.25458 L 272.00112,135.25458 z M 280.36565,150.87038 L 280.36565,135.25458 L 283.50988,135.25458 L 283.50988,136.92447 L 283.57005,136.92447 C 284.5429,135.69087 285.89687,135.07406 287.63196,135.07405 C 288.77531,135.07406 289.8635,135.47524 290.89654,136.27758 L 288.62488,138.98552 C 287.94287,138.47403 287.25084,138.21828 286.54879,138.21827 C 285.77652,138.21828 285.07696,138.47654 284.45013,138.99304 C 283.82329,139.50957 283.50987,140.3395 283.50988,141.48284 L 283.50988,150.87038 L 280.36565,150.87038 z M 300.53982,150.87038 L 300.53982,149.48632 L 300.4646,149.48632 C 299.83274,150.52938 298.54897,151.0509 296.61331,151.05091 C 294.86818,151.0509 293.51421,150.59707 292.55139,149.68941 C 291.58857,148.78175 291.10716,147.64592 291.10716,146.28192 C 291.10716,145.04831 291.53341,143.97015 292.38591,143.04743 C 293.2384,142.12473 294.50712,141.66338 296.19207,141.66337 L 300.53982,141.66337 L 300.53982,140.03861 C 300.53981,138.70471 299.47168,138.03775 297.33542,138.03774 C 295.85106,138.03775 294.86317,138.43391 294.37173,139.22623 L 291.90449,137.36075 C 292.9977,135.8363 294.75284,135.07406 297.16994,135.07405 C 299.09558,135.07406 300.66016,135.45017 301.8637,136.20236 C 303.06722,136.95458 303.66898,138.2935 303.669,140.21914 L 303.669,150.87038 L 300.53982,150.87038 z M 300.53982,145.39432 L 300.53982,144.25096 L 296.77879,144.25096 C 294.96346,144.25097 294.0558,144.87781 294.0558,146.13148 C 294.0558,146.66304 294.28397,147.12439 294.74031,147.51554 C 295.19665,147.90669 295.95637,148.10226 297.0195,148.10226 C 298.32331,148.10226 299.23599,147.95683 299.75753,147.66598 C 300.27905,147.37513 300.53981,146.61791 300.53982,145.39432 L 300.53982,145.39432 z M 313.59813,138.98552 L 313.59813,136.03687 L 315.47864,136.03687 C 316.58187,136.03689 317.13348,135.43011 317.1335,134.21653 C 317.13348,133.4142 316.97301,132.85756 316.65208,132.54663 C 316.0804,132.0853 315.17274,131.86967 313.9291,131.89974 C 312.78574,131.92984 311.99091,132.10787 311.5446,132.4338 C 311.09829,132.75978 310.86009,133.23868 310.83001,133.87052 L 310.83001,150.87038 L 307.68579,150.87038 L 307.68579,133.87052 C 307.68579,132.15551 308.3051,130.87425 309.54374,130.02674 C 310.78236,129.17928 312.34946,128.75554 314.24502,128.75552 C 316.03025,128.75554 317.48201,129.22943 318.6003,130.17719 C 319.71856,131.12499 320.2777,132.38618 320.27772,133.96078 C 320.2777,135.65577 319.53051,136.81918 318.03614,137.45102 C 319.53051,138.0528 320.2777,139.19113 320.27772,140.86603 L 320.27772,146.4474 C 320.2777,147.671 319.87903,148.71405 319.08171,149.57658 C 318.28436,150.43911 317.23879,150.87038 315.94501,150.87038 L 314.00432,150.87038 L 314.00432,147.92173 L 315.10254,147.92173 C 316.4565,147.92173 317.13348,147.37513 317.1335,146.28192 L 317.1335,140.80586 C 317.13348,139.59231 316.56181,138.98553 315.41847,138.98552 L 313.59813,138.98552 z M 336.38996,144.25096 L 326.67146,144.25096 C 326.67145,145.53473 327.01998,146.49756 327.71702,147.13943 C 328.41406,147.78132 329.30417,148.10226 330.38736,148.10226 C 331.68114,148.10226 332.82449,147.60079 333.81742,146.59784 L 336.08908,148.53854 C 335.3168,149.44119 334.44675,150.08557 333.47892,150.47171 C 332.51107,150.85784 331.50061,151.0509 330.44753,151.05091 C 328.84282,151.0509 327.28826,150.53188 325.78386,149.49384 C 324.27944,148.4558 323.52724,146.33207 323.52724,143.12265 C 323.52724,140.08375 324.22177,137.98259 325.61085,136.81917 C 326.99992,135.65577 328.45167,135.07406 329.96612,135.07405 C 331.68114,135.07406 333.18054,135.66831 334.46431,136.85678 C 335.74806,138.04527 336.38995,139.64747 336.38996,141.66337 L 336.38996,144.25096 z M 326.67146,141.66337 L 333.26078,141.66337 C 333.21063,140.48994 332.87966,139.59231 332.26787,138.97048 C 331.65607,138.34866 330.88882,138.03775 329.96612,138.03774 C 329.03338,138.03775 328.25861,138.34866 327.6418,138.97048 C 327.02499,139.59231 326.70154,140.48994 326.67146,141.66337 L 326.67146,141.66337 z "
     transform="matrix(1,-6.220629e-2,0,1,0,0)"
     style="font-size:30.81036186px;font-style:normal;font-variant:normal;font-weight:normal;font-stretch:normal;text-align:center;line-height:100%;writing-mode:lr-tb;text-anchor:middle;fill:black;fill-opacity:1;stroke:none;stroke-width:1px;stroke-linecap:butt;stroke-linejoin:miter;stroke-opacity:1;font-family:DIN 1451 Mittelschrift"
     id="text15441" />
  <path
     d="M 485.95035,66.642669 L 486.12849,106.45318"
     style="fill:none;fill-opacity:1;fill-rule:evenodd;stroke:black;stroke-width:1.92167115;stroke-linecap:butt;stroke-linejoin:miter;stroke-miterlimit:4;stroke-dasharray:none;stroke-opacity:1"
     id="path17227" />
  <path
     d="M 387.29107,52.134304 L 387.71176,94.223279"
     style="fill:none;fill-opacity:1;fill-rule:evenodd;stroke:black;stroke-width:3.03640079;stroke-linecap:butt;stroke-linejoin:miter;stroke-miterlimit:4;stroke-dasharray:none;stroke-opacity:1"
     id="path17225" />
  <path
     d="M 499.18471,72.712917 L 374.49984,54.148463 C 373.48582,54.144624 372.45887,55.064069 372.39706,56.371853 L 372.36163,87.174673 C 372.43348,89.369022 373.39647,89.739216 374.28956,89.911821 L 499.17679,104.92859 C 501.00853,104.79001 500.75208,103.50239 500.85901,102.42911 L 500.89443,75.325623 C 500.9935,74.18394 500.62079,73.233213 499.18471,72.712917 z "
     style="fill:white;fill-opacity:1;fill-rule:evenodd;stroke:black;stroke-width:0.84585863px;stroke-linecap:butt;stroke-linejoin:miter;stroke-opacity:1"
     id="path15445" />
  <path
     d="M 380.498,75.22609 C 380.49799,75.59971 380.51271,75.882097 380.54215,76.073249 C 380.57158,76.264409 380.71919,76.570173 380.98499,76.990545 C 381.25078,77.410922 381.73778,77.669798 382.44597,77.767169 C 382.84001,77.821351 383.20431,77.787797 383.53889,77.666512 C 383.87346,77.54523 384.11944,77.36251 384.27682,77.118349 C 384.43419,76.874194 384.51783,76.610137 384.52775,76.326178 C 384.53765,76.042225 384.54261,75.850993 384.54262,75.75248 L 384.54262,74.36493 C 384.54261,73.970894 384.52789,73.673491 384.49847,73.472719 C 384.46903,73.271959 384.35084,73.044121 384.14392,72.789211 C 383.93698,72.534312 383.64175,72.287088 383.25823,72.047538 C 382.8747,71.808004 382.20555,71.445396 381.25079,70.959715 C 380.29602,70.47405 379.49382,69.80768 378.8442,68.960602 C 378.19457,68.113545 377.86976,67.030476 377.86976,65.711389 L 377.86976,64.8257 C 377.86976,63.487421 378.31756,62.392702 379.21316,61.541539 C 380.10876,60.690412 381.22571,60.356846 382.56401,60.540838 C 383.92212,60.727594 385.05888,61.361278 385.97431,62.441894 C 386.88973,63.522546 387.34744,64.751531 387.34745,66.128854 L 387.34745,67.014543 L 384.54262,66.628888 L 384.54262,65.743199 C 384.54261,65.468105 384.52294,65.229337 384.4836,65.026893 C 384.44425,64.824478 384.28672,64.517349 384.01102,64.105507 C 383.73531,63.693697 383.27279,63.443144 382.62347,63.353847 C 382.05283,63.275403 381.58536,63.412952 381.22106,63.766496 C 380.85674,64.12007 380.67459,64.601691 380.67459,65.211356 L 380.67459,66.097045 C 380.67459,66.471277 380.68946,66.744074 380.71919,66.915435 C 380.74892,67.086823 380.85224,67.292943 381.02914,67.533796 C 381.20603,67.774672 381.46192,67.996815 381.7968,68.200223 C 382.13167,68.403654 382.77634,68.743224 383.73081,69.218934 C 384.68527,69.694666 385.52666,70.37138 386.25498,71.24908 C 386.98328,72.126797 387.34744,73.234798 387.34745,74.573086 L 387.34745,76.167868 C 387.34744,76.817196 387.28347,77.379037 387.15553,77.853392 C 387.02758,78.327751 386.62904,78.956967 385.9599,79.741038 C 385.29074,80.52511 384.13926,80.804824 382.50544,80.580178 C 380.81275,80.347439 379.58257,79.622222 378.81492,78.40453 C 378.04726,77.186839 377.66343,75.997446 377.66343,74.836345 L 377.66343,74.127253 L 380.498,74.516998 L 380.498,75.22609 z M 397.76128,78.455695 C 397.76127,79.616793 397.3381,80.552568 396.49176,81.263021 C 395.64541,81.973474 394.64139,82.248835 393.4797,82.089106 C 392.85019,82.002551 392.22534,81.754155 391.60515,81.343917 C 390.98496,80.93368 390.51749,80.480621 390.20274,79.984737 C 389.88798,79.488855 389.66664,78.995905 389.5387,78.505884 C 389.41075,78.015867 389.34678,77.524882 389.34678,77.032929 L 389.34678,71.541295 C 389.34678,70.380209 389.74533,69.406661 390.54242,68.620646 C 391.3395,67.834655 392.32851,67.522841 393.50943,67.6852 C 394.72999,67.853037 395.74377,68.425362 396.55078,69.402178 C 397.35777,70.379015 397.76127,71.477709 397.76128,72.698264 L 394.95645,72.312608 C 394.95644,71.879533 394.83345,71.478794 394.58749,71.110391 C 394.34151,70.742007 394.00198,70.528035 393.5689,70.468477 C 393.31301,70.433304 393.09151,70.456909 392.90441,70.539293 C 392.71729,70.621696 392.55001,70.765983 392.40255,70.972149 C 392.25508,71.178336 392.18134,71.497965 392.18135,71.93104 L 392.18135,77.422674 C 392.18134,77.934449 392.28962,78.352837 392.50616,78.677836 C 392.7227,79.002843 393.08655,79.200486 393.59773,79.270769 C 394.01159,79.327677 394.34151,79.220469 394.58749,78.949147 C 394.83345,78.677828 394.95644,78.325627 394.95645,77.892541 L 397.76128,78.278197 L 397.76128,78.455695 z M 405.28198,69.30389 C 405.79375,69.374271 406.27608,69.578294 406.729,69.915963 C 407.1819,70.253657 407.50671,70.618174 407.70344,71.009517 C 407.90015,71.400884 408.02313,71.727889 408.0724,71.990538 C 408.12164,72.253205 408.14627,72.591165 408.14628,73.004417 L 408.14628,83.928219 L 405.31171,83.538474 L 405.31171,73.676958 C 405.31171,73.204841 405.20344,72.806276 404.9869,72.481263 C 404.77035,72.156269 404.42602,71.961309 403.9539,71.896383 C 403.54063,71.839571 403.2011,71.955219 402.93531,72.243324 C 402.66951,72.531451 402.53661,72.882139 402.53661,73.29539 L 402.53661,83.156906 L 399.70205,82.767163 L 399.70205,63.074766 L 402.53661,63.464509 L 402.53661,70.461725 C 403.18594,69.527476 404.10106,69.141531 405.28198,69.30389 L 405.28198,69.30389 z M 410.65829,84.273613 L 410.65829,70.219714 L 413.49285,70.609457 L 413.49285,84.663356 L 410.65829,84.273613 z M 410.65829,67.356316 L 410.65829,64.581216 L 413.49285,64.970959 L 413.49285,67.746059 L 410.65829,67.356316 z M 418.79798,65.700399 L 418.79798,81.348178 C 418.79797,81.820307 418.87666,82.175461 419.03404,82.413639 C 419.19141,82.651822 419.50647,82.803412 419.9792,82.868409 L 420.18553,82.896779 L 420.18553,85.58358 L 419.56564,85.498347 C 419.11273,85.436073 418.68955,85.328632 418.29612,85.176027 C 417.90268,85.02342 417.50909,84.767627 417.11535,84.408648 C 416.72161,84.049671 416.43118,83.616148 416.24408,83.108082 C 416.05697,82.600019 415.96341,82.070278 415.96341,81.518859 L 415.96341,65.310654 L 418.79798,65.700399 z M 424.73741,66.517053 L 424.73741,82.164832 C 424.73741,82.636963 424.8161,82.992116 424.97348,83.230295 C 425.13085,83.468477 425.4459,83.620066 425.91863,83.685063 L 426.12496,83.713433 L 426.12496,86.400234 L 425.50507,86.315001 C 425.05216,86.252727 424.62899,86.145287 424.23555,85.99268 C 423.84211,85.840074 423.44852,85.584281 423.05478,85.225302 C 422.66104,84.866325 422.37062,84.432803 422.18351,83.924736 C 421.9964,83.416673 421.90285,82.886933 421.90285,82.335514 L 421.90285,66.127309 L 424.73741,66.517053 z M 431.76887,84.489453 C 432.18273,84.54636 432.51745,84.464441 432.77304,84.243695 C 433.02862,84.022953 433.18615,83.71004 433.24562,83.304952 L 436.05045,83.690608 L 436.05045,84.01497 C 436.05044,84.448055 435.95689,84.868277 435.76979,85.275631 C 435.58267,85.682988 435.19389,86.175842 434.60344,86.754192 C 434.01297,87.332541 433.08794,87.53512 431.82834,87.361929 C 431.02103,87.250927 430.27785,86.9322 429.5988,86.405749 C 428.91974,85.879297 428.45226,85.337637 428.19638,84.780771 C 427.94049,84.223907 427.77816,83.729159 427.70939,83.296528 C 427.64061,82.863902 427.60622,82.440956 427.60622,82.02769 L 427.60622,76.683821 C 427.60622,75.522735 428.02444,74.571563 428.86087,73.830302 C 429.6973,73.089066 430.69637,72.798307 431.85807,72.958023 C 433.05881,73.123135 434.05772,73.678699 434.85482,74.624719 C 435.6519,75.570761 436.05044,76.644146 436.05045,77.844878 L 436.05045,81.741731 L 430.44079,80.970419 L 430.44079,83.067061 C 430.44078,83.361993 430.58344,83.661971 430.86877,83.966996 C 431.15408,84.272026 431.45411,84.446177 431.76887,84.489453 L 431.76887,84.489453 z M 431.82834,75.729035 C 431.45411,75.677591 431.1293,75.760873 430.8539,75.978882 C 430.57849,76.19691 430.44078,76.63058 430.44079,77.279896 L 430.44079,78.667446 L 433.21589,79.049014 L 433.21589,77.661464 C 433.21588,77.149702 433.10761,76.716598 432.89107,76.362151 C 432.67453,76.007727 432.32028,75.796687 431.82834,75.729035 L 431.82834,75.729035 z M 444.7749,74.734048 L 444.7749,77.62718 C 444.63733,77.569233 444.49963,77.520867 444.36178,77.482079 C 444.22392,77.443312 444.09583,77.415789 443.97751,77.39951 C 443.05247,77.27233 442.34398,77.489817 441.85203,78.051968 C 441.36008,78.61414 441.1141,79.338213 441.11411,80.224196 L 441.11411,88.461197 L 438.27954,88.071452 L 438.27954,74.017553 L 441.11411,74.407298 L 441.11411,75.913781 C 441.60605,75.371153 442.21123,75.021279 442.92963,74.864158 C 443.64803,74.707064 444.26312,74.663694 444.7749,74.734048 L 444.7749,74.734048 z M 454.11383,94.11664 C 453.71978,94.652915 453.21777,95.051362 452.60779,95.31198 C 451.99781,95.572589 451.34833,95.65553 450.65937,95.560805 C 449.45862,95.395701 448.43012,94.845829 447.57387,93.91119 C 446.71761,92.97654 446.28949,91.898938 446.28949,90.678378 L 449.12405,91.068122 C 449.12405,91.46216 449.25199,91.814475 449.50788,92.125068 C 449.76376,92.435656 450.09834,92.619363 450.5116,92.676188 C 451.10206,92.757372 451.53514,92.551122 451.81085,92.05744 C 451.88954,91.871839 451.92888,91.562497 451.92889,91.129416 L 451.92889,88.501181 C 451.65317,88.935999 451.2791,89.273499 450.80668,89.513683 C 450.33425,89.753866 449.83224,89.837412 449.30065,89.764319 C 448.73001,89.685858 448.20367,89.460918 447.72164,89.089499 C 447.2396,88.71808 446.89511,88.321274 446.68818,87.899081 C 446.48125,87.47689 446.36307,87.145739 446.33364,86.905627 C 446.3042,86.665519 446.28949,86.299189 446.28949,85.806636 L 446.28949,78.01293 C 446.28949,77.658546 446.33379,77.339824 446.42239,77.056765 C 446.51098,76.773728 446.75711,76.379442 447.16076,75.873904 C 447.56441,75.368392 448.26809,75.184633 449.27182,75.322628 C 449.80281,75.395652 450.29476,75.596192 450.74767,75.924248 C 451.20057,76.252332 451.59431,76.675431 451.92889,77.19355 L 451.92889,75.894298 L 454.76345,76.284041 L 454.76345,91.519159 C 454.76344,92.069972 454.71914,92.550874 454.63055,92.961868 C 454.54195,93.372855 454.3697,93.757778 454.11383,94.11664 L 454.11383,94.11664 z M 451.66309,78.987848 C 451.36755,78.553183 450.98372,78.303388 450.5116,78.238461 C 449.96018,78.162654 449.60083,78.275725 449.43355,78.577677 C 449.26626,78.879649 449.17285,79.112929 449.15334,79.277524 C 449.13381,79.442135 449.12405,79.613036 449.12405,79.790224 L 449.12405,85.134093 C 449.12405,85.409805 449.13877,85.633326 449.1682,85.804656 C 449.19763,85.975993 449.31086,86.212908 449.50788,86.515402 C 449.7049,86.817903 450.05899,87.004292 450.57017,87.074576 C 451.18044,87.158488 451.55451,87.037679 451.69237,86.712148 C 451.83022,86.38662 451.89915,86.135256 451.89915,85.958054 C 451.89915,85.780861 451.90906,85.634759 451.92889,85.51975 L 451.92889,80.175881 C 451.92888,79.900181 451.91401,79.681595 451.88429,79.520122 C 451.85455,79.358668 451.78081,79.181242 451.66309,78.987848 L 451.66309,78.987848 z M 457.34034,89.216406 C 457.20218,88.960747 457.11343,88.687552 457.07409,88.396823 C 457.03474,88.106097 457.01507,87.783535 457.01507,87.429136 L 457.01507,85.835256 C 457.01507,84.791896 457.27591,84.050193 457.7976,83.610146 C 458.31928,83.170111 458.7917,82.885777 459.21488,82.757146 C 459.63805,82.628531 460.14486,82.604812 460.73533,82.685991 L 462.62474,82.945779 L 462.62474,81.734827 C 462.62473,81.459128 462.61002,81.230802 462.58059,81.049847 C 462.55115,80.868912 462.42816,80.6257 462.21163,80.320208 C 461.99508,80.014737 461.6997,79.836269 461.32549,79.784805 C 460.93204,79.730718 460.59747,79.812658 460.32177,80.030625 C 460.04605,80.248611 459.87877,80.560184 459.81991,80.965342 L 457.01507,80.579685 C 457.01507,79.438421 457.42353,78.515491 458.24044,77.810889 C 459.05735,77.106312 460.04635,76.833841 461.20746,76.993476 C 462.34932,77.150492 463.34343,77.690681 464.18979,78.61404 C 465.03612,79.537421 465.4593,80.579655 465.4593,81.740741 L 465.4593,91.808587 L 462.62474,91.418844 L 462.62474,90.001561 C 462.3298,90.452958 461.96084,90.791011 461.51785,91.01572 C 461.07485,91.240428 460.57765,91.314873 460.02624,91.239056 C 458.78645,91.068589 457.89115,90.394372 457.34034,89.216406 L 457.34034,89.216406 z M 459.84964,86.195267 L 459.84964,86.903458 C 459.84963,87.277679 459.98253,87.635631 460.24833,87.977316 C 460.51413,88.319005 460.86327,88.519582 461.29575,88.579044 C 461.53241,88.611587 461.75406,88.583047 461.9607,88.493424 C 462.16732,88.403805 462.3247,88.263113 462.43282,88.071345 C 462.54094,87.879585 462.59995,87.621901 462.60987,87.298298 C 462.61978,86.974703 462.62473,86.744126 462.62474,86.606569 L 462.62474,85.247851 L 461.56155,85.101665 C 461.04977,85.031303 460.63651,85.072991 460.32177,85.226729 C 460.00701,85.380477 459.84963,85.703322 459.84964,86.195267 L 459.84964,86.195267 z M 471.52128,90.16162 C 471.95435,90.221169 472.32827,90.134878 472.64303,89.902747 C 472.95777,89.670618 473.11515,89.338012 473.11516,88.904926 C 473.11515,88.393157 472.9824,87.996032 472.71691,87.713548 C 472.45141,87.431074 472.03304,87.152051 471.46181,86.876483 L 470.90138,86.593095 C 470.31092,86.295073 469.81882,86.015674 469.42508,85.754899 C 469.03134,85.494137 468.60817,85.062035 468.15557,84.458592 C 467.70296,83.855163 467.47666,83.041674 467.47666,82.018122 C 467.47666,80.857036 467.88016,79.928468 468.68716,79.232414 C 469.49416,78.536388 470.48812,78.269553 471.66904,78.431912 C 472.75144,78.580753 473.66656,79.119841 474.41441,80.049177 C 475.16223,80.978535 475.53615,81.964892 475.53616,83.008247 L 472.93856,82.651085 C 472.93855,82.237833 472.80565,81.88003 472.53986,81.577677 C 472.27406,81.275345 471.92462,81.094399 471.49154,81.034841 C 471.0981,80.980755 470.77344,81.083731 470.51755,81.343766 C 470.26166,81.603821 470.13372,81.940476 470.13373,82.353728 C 470.13372,82.78682 470.26166,83.139135 470.51755,83.410674 C 470.77344,83.682231 471.14735,83.940423 471.63931,84.185255 L 472.55473,84.605752 C 473.08632,84.875872 473.50453,85.120483 473.80938,85.339589 C 474.11421,85.558709 474.4192,85.86629 474.72435,86.262336 C 475.02949,86.658394 475.28057,87.106178 475.47759,87.605689 C 475.67461,88.105211 475.77312,88.620767 475.77312,89.152356 C 475.77312,90.294234 475.36466,91.236987 474.54776,91.980619 C 473.73084,92.724252 472.75144,93.017565 471.60957,92.860561 C 470.9206,92.76583 470.22683,92.48348 469.52825,92.01351 C 468.82967,91.54354 468.28846,90.962309 467.90464,90.26982 C 467.52081,89.577332 467.32889,88.827736 467.32889,88.021032 L 469.95623,88.382284 C 469.95622,88.815369 470.10879,89.205309 470.41394,89.552104 C 470.71908,89.898903 471.08819,90.102075 471.52128,90.16162 L 471.52128,90.16162 z M 481.26656,91.501567 C 481.69964,91.561117 482.07356,91.474826 482.38831,91.242693 C 482.70306,91.010566 482.86043,90.677959 482.86044,90.244873 C 482.86043,89.733104 482.72769,89.33598 482.4622,89.053496 C 482.19669,88.77102 481.77833,88.491999 481.20709,88.21643 L 480.64667,87.933043 C 480.0562,87.635019 479.56411,87.355622 479.17037,87.094847 C 478.77663,86.834085 478.35345,86.401981 477.90085,85.798539 C 477.44824,85.19511 477.22194,84.381621 477.22194,83.358069 C 477.22194,82.196983 477.62544,81.268415 478.43244,80.572361 C 479.23944,79.876334 480.2334,79.6095 481.41433,79.77186 C 482.49673,79.920701 483.41185,80.459789 484.15969,81.389124 C 484.90752,82.318483 485.28144,83.30484 485.28145,84.348196 L 482.68384,83.991032 C 482.68384,83.577781 482.55094,83.219979 482.28515,82.917625 C 482.01935,82.615294 481.66991,82.434348 481.23683,82.374789 C 480.84338,82.320702 480.51872,82.423677 480.26284,82.683714 C 480.00695,82.94377 479.87901,83.280424 479.87901,83.693675 C 479.87901,84.126768 480.00695,84.479084 480.26284,84.750622 C 480.51872,85.022177 480.89264,85.280371 481.38459,85.525202 L 482.30001,85.945698 C 482.8316,86.215819 483.24982,86.460432 483.55467,86.679537 C 483.8595,86.898657 484.16449,87.206238 484.46964,87.602284 C 484.77477,87.998341 485.02585,88.446124 485.22288,88.945637 C 485.41989,89.445158 485.5184,89.960713 485.51841,90.492304 C 485.5184,91.63418 485.10994,92.576933 484.29304,93.320566 C 483.47612,94.064199 482.49673,94.357513 481.35486,94.200509 C 480.66589,94.105778 479.97211,93.823427 479.27353,93.353457 C 478.57495,92.883487 478.03375,92.302258 477.64992,91.609767 C 477.26609,90.917279 477.07418,90.167685 477.07418,89.360981 L 479.70151,89.722231 C 479.70151,90.155318 479.85408,90.545257 480.15922,90.89205 C 480.46436,91.23885 480.83347,91.442022 481.26656,91.501567 L 481.26656,91.501567 z M 491.33621,92.679784 C 491.75006,92.736689 492.08479,92.654771 492.34038,92.434025 C 492.59596,92.213284 492.75348,91.900369 492.81296,91.495283 L 495.61779,91.880938 L 495.61779,92.2053 C 495.61778,92.638386 495.52423,93.058607 495.33713,93.465961 C 495.15001,93.873319 494.76123,94.366173 494.17077,94.944521 C 493.58031,95.522872 492.65527,95.72545 491.39567,95.552258 C 490.58837,95.441257 489.84519,95.12253 489.16613,94.596078 C 488.48707,94.069627 488.0196,93.527968 487.76372,92.971101 C 487.50783,92.414237 487.3455,91.919489 487.27672,91.486857 C 487.20795,91.054233 487.17356,90.631287 487.17356,90.218021 L 487.17356,84.874152 C 487.17356,83.713066 487.59177,82.761893 488.42821,82.020633 C 489.26464,81.279396 490.26371,80.988637 491.42541,81.148354 C 492.62614,81.313464 493.62506,81.86903 494.42215,82.815048 C 495.21924,83.761092 495.61778,84.834477 495.61779,86.035208 L 495.61779,89.932061 L 490.00812,89.160748 L 490.00812,91.25739 C 490.00812,91.552323 490.15078,91.852302 490.4361,92.157325 C 490.72142,92.462356 491.02145,92.636507 491.33621,92.679784 L 491.33621,92.679784 z M 491.39567,83.919364 C 491.02145,83.867921 490.69664,83.951204 490.42124,84.169212 C 490.14582,84.387239 490.00812,84.82091 490.00812,85.470225 L 490.00812,86.857775 L 492.78322,87.239343 L 492.78322,85.851793 C 492.78322,85.340032 492.67495,84.906929 492.45841,84.552482 C 492.24186,84.198056 491.88762,83.987017 491.39567,83.919364 L 491.39567,83.919364 z "
     style="font-size:29.52417946px;font-style:normal;font-variant:normal;font-weight:normal;font-stretch:normal;text-align:center;line-height:100%;writing-mode:lr-tb;text-anchor:middle;fill:black;fill-opacity:1;stroke:none;stroke-width:1px;stroke-linecap:butt;stroke-linejoin:miter;stroke-opacity:1;font-family:DIN 1451 Engschrift"
     id="text15447" />
</svg>
