<?xml version="1.0" encoding="UTF-8" standalone="no"?>
<svg
   xmlns:dc="http://purl.org/dc/elements/1.1/"
   xmlns:cc="http://creativecommons.org/ns#"
   xmlns:rdf="http://www.w3.org/1999/02/22-rdf-syntax-ns#"
   xmlns:svg="http://www.w3.org/2000/svg"
   xmlns="http://www.w3.org/2000/svg"
   viewBox="0 0 3601.7292 2401.448"
   height="2401.448"
   width="3601.7292"
   xml:space="preserve"
   id="svg5593"
   version="1.1"><metadata
     id="metadata5599"><rdf:RDF><cc:Work
         rdf:about=""><dc:format>image/svg+xml</dc:format><dc:type
           rdf:resource="http://purl.org/dc/dcmitype/StillImage" /><dc:title></dc:title></cc:Work></rdf:RDF></metadata><defs
     id="defs5597"><clipPath
       id="clipPath5615"
       clipPathUnits="userSpaceOnUse"><path
         id="path5613"
         d="M 0,0 H 2702 V 1802 H 0 Z" /></clipPath><clipPath
       id="clipPath5663"
       clipPathUnits="userSpaceOnUse"><path
         id="path5661"
         d="m 39,1760.461 h 2623 v -1720 H 39 Z" /></clipPath><clipPath
       id="clipPath5673"
       clipPathUnits="userSpaceOnUse"><path
         id="path5671"
         d="M 39,41 H 2662 V 1762 H 39 Z" /></clipPath><clipPath
       id="clipPath5683"
       clipPathUnits="userSpaceOnUse"><path
         id="path5681"
         d="m 39,1761.375 h 2623 v -1720 H 39 Z" /></clipPath><clipPath
       id="clipPath5693"
       clipPathUnits="userSpaceOnUse"><path
         id="path5691"
         d="M 39,41 H 2662 V 1761 H 39 Z" /></clipPath></defs><g
     transform="matrix(1.3333333,0,0,-1.3333333,0,2401.4481)"
     id="g5601"><g
       id="g5603" /><g
       id="g5605"><g
         transform="translate(0,-0.91394)"
         id="g5607"><g
           id="g5609"><g
             clip-path="url(#clipPath5615)"
             id="g5611"><g
               id="g5617"><path
                 id="path5619"
                 style="fill:#000000;fill-opacity:1;fill-rule:nonzero;stroke:none"
                 d="m 454.754,1415.824 h 29.574 l -9.105,24.117 c -2.766,7.336 -4.848,13.371 -6.176,18.082 -1.125,-5.597 -2.695,-11.121 -4.707,-16.648 z m -25.145,-35.82 33.5,87.195 h 12.418 l 35.649,-87.195 h -13.133 l -10.164,26.402 H 451.41 l -9.551,-26.402 z" /><path
                 id="path5621"
                 style="fill:#000000;fill-opacity:1;fill-rule:nonzero;stroke:none"
                 d="m 560.441,1380.016 v 9.281 c -4.949,-7.164 -11.601,-10.711 -20.058,-10.711 -3.719,0 -7.199,0.715 -10.442,2.148 -3.207,1.399 -5.629,3.207 -7.164,5.391 -1.601,2.148 -2.695,4.773 -3.308,7.914 -0.442,2.113 -0.649,5.422 -0.649,9.996 v 39.125 h 10.68 v -35 c 0,-5.629 0.238,-9.379 0.648,-11.324 0.68,-2.797 2.114,-5.016 4.297,-6.617 2.184,-1.606 4.879,-2.422 8.086,-2.422 3.207,0 6.207,0.816 9.039,2.453 2.832,1.672 4.809,3.926 5.969,6.723 1.16,2.863 1.773,6.957 1.773,12.347 v 33.84 h 10.68 v -63.144 z" /><path
                 id="path5623"
                 style="fill:#000000;fill-opacity:1;fill-rule:nonzero;stroke:none"
                 d="m 582.496,1398.867 10.578,1.672 c 0.578,-4.23 2.25,-7.504 4.981,-9.754 2.695,-2.254 6.48,-3.414 11.359,-3.414 4.945,0 8.598,1.024 10.949,3.004 2.387,2.012 3.582,4.367 3.582,7.063 0,2.421 -1.058,4.332 -3.172,5.73 -1.468,0.953 -5.117,2.148 -10.949,3.613 -7.812,1.981 -13.273,3.688 -16.308,5.153 -3.036,1.433 -5.321,3.445 -6.891,6.004 -1.57,2.558 -2.352,5.355 -2.352,8.46 0,2.797 0.645,5.426 1.942,7.813 1.262,2.422 3.039,4.398 5.254,5.969 1.672,1.23 3.926,2.285 6.789,3.14 2.898,0.852 5.969,1.293 9.281,1.293 4.945,0 9.277,-0.75 13.031,-2.183 3.75,-1.399 6.516,-3.34 8.289,-5.762 1.809,-2.457 3.036,-5.699 3.684,-9.793 l -10.438,-1.434 c -0.48,3.243 -1.878,5.766 -4.164,7.61 -2.25,1.84 -5.492,2.73 -9.652,2.73 -4.914,0 -8.426,-0.785 -10.508,-2.426 -2.117,-1.636 -3.172,-3.546 -3.172,-5.695 0,-1.398 0.442,-2.66 1.329,-3.754 0.855,-1.156 2.218,-2.113 4.093,-2.863 1.059,-0.41 4.231,-1.297 9.449,-2.731 7.575,-2.011 12.864,-3.683 15.829,-4.98 3.003,-1.262 5.359,-3.172 7.097,-5.629 1.672,-2.457 2.524,-5.492 2.524,-9.141 0,-3.582 -1.059,-6.925 -3.106,-10.097 -2.078,-3.141 -5.117,-5.563 -9.004,-7.301 -3.922,-1.707 -8.39,-2.559 -13.34,-2.559 -8.218,0 -14.464,1.707 -18.761,5.118 -4.297,3.41 -7.063,8.461 -8.223,15.144" /><path
                 id="path5625"
                 style="fill:#000000;fill-opacity:1;fill-rule:nonzero;stroke:none"
                 d="m 650.203,1380.016 v 54.824 h -9.449 v 8.32 h 9.449 v 6.723 c 0,4.23 0.375,7.402 1.125,9.449 1.059,2.797 2.867,5.047 5.457,6.754 2.594,1.738 6.246,2.594 10.918,2.594 3.004,0 6.344,-0.344 9.996,-1.094 l -1.605,-9.313 c -2.215,0.375 -4.332,0.582 -6.309,0.582 -3.277,0 -5.562,-0.683 -6.89,-2.082 -1.368,-1.363 -2.016,-3.957 -2.016,-7.777 v -5.836 h 12.281 v -8.32 h -12.281 v -54.824 z" /><path
                 id="path5627"
                 style="fill:#000000;fill-opacity:1;fill-rule:nonzero;stroke:none"
                 d="m 712.371,1467.727 h 11.191 v -12.18 h -11.191 z m -22.172,0 h 11.188 v -12.18 h -11.188 z m 32.715,-87.707 v 9.281 c -4.949,-7.164 -11.633,-10.711 -20.059,-10.711 -3.718,0 -7.234,0.715 -10.441,2.148 -3.238,1.399 -5.629,3.207 -7.195,5.356 -1.571,2.183 -2.664,4.808 -3.313,7.949 -0.406,2.113 -0.644,5.422 -0.644,9.992 v 39.129 h 10.711 v -35.035 c 0,-5.594 0.203,-9.344 0.648,-11.289 0.68,-2.797 2.078,-5.016 4.262,-6.652 2.219,-1.571 4.879,-2.391 8.121,-2.391 3.207,0 6.207,0.82 9.004,2.457 2.832,1.672 4.812,3.926 5.972,6.723 1.192,2.863 1.774,6.957 1.774,12.347 v 33.84 h 10.711 v -63.144 z" /><path
                 id="path5629"
                 style="fill:#000000;fill-opacity:1;fill-rule:nonzero;stroke:none"
                 d="m 749.238,1380.016 v 87.16 h 10.711 v -31.246 c 4.981,5.765 11.293,8.664 18.899,8.664 4.675,0 8.734,-0.922 12.179,-2.762 3.446,-1.844 5.934,-4.402 7.403,-7.641 1.5,-3.242 2.25,-7.984 2.25,-14.16 v -40.015 h -10.711 v 40.015 c 0,5.356 -1.192,9.246 -3.481,11.703 -2.316,2.422 -5.629,3.649 -9.855,3.649 -3.176,0 -6.141,-0.817 -8.942,-2.488 -2.796,-1.637 -4.808,-3.856 -5.968,-6.688 -1.192,-2.797 -1.774,-6.687 -1.774,-11.633 v -34.558 z" /><path
                 id="path5631"
                 style="fill:#000000;fill-opacity:1;fill-rule:nonzero;stroke:none"
                 d="m 816.84,1380.016 v 63.144 h 9.621 v -9.551 c 2.457,4.469 4.742,7.403 6.824,8.836 2.078,1.434 4.363,2.149 6.856,2.149 3.617,0 7.265,-1.16 10.984,-3.446 l -3.684,-9.925 c -2.593,1.535 -5.218,2.32 -7.812,2.32 -2.356,0 -4.469,-0.719 -6.313,-2.117 -1.875,-1.434 -3.207,-3.375 -3.988,-5.867 -1.195,-3.786 -1.808,-7.95 -1.808,-12.485 v -33.058 z" /><path
                 id="path5633"
                 style="fill:#000000;fill-opacity:1;fill-rule:nonzero;stroke:none"
                 d="m 898.902,1380.016 v 9.281 c -4.91,-7.164 -11.597,-10.711 -20.058,-10.711 -3.715,0 -7.196,0.715 -10.438,2.148 -3.207,1.399 -5.594,3.207 -7.164,5.391 -1.601,2.148 -2.695,4.773 -3.308,7.914 -0.442,2.113 -0.649,5.422 -0.649,9.996 v 39.125 h 10.68 v -35 c 0,-5.629 0.238,-9.379 0.648,-11.324 0.68,-2.797 2.114,-5.016 4.297,-6.617 2.184,-1.606 4.879,-2.422 8.086,-2.422 3.207,0 6.207,0.816 9.039,2.453 2.832,1.672 4.809,3.926 5.969,6.723 1.16,2.863 1.773,6.957 1.773,12.347 v 33.84 h 10.68 v -63.144 z" /><path
                 id="path5635"
                 style="fill:#000000;fill-opacity:1;fill-rule:nonzero;stroke:none"
                 d="m 925.242,1380.016 v 63.144 h 9.621 v -8.969 c 4.641,6.922 11.36,10.403 20.094,10.403 3.82,0 7.301,-0.68 10.508,-2.047 3.203,-1.363 5.558,-3.172 7.16,-5.391 1.605,-2.215 2.695,-4.844 3.344,-7.879 0.375,-2.011 0.582,-5.492 0.582,-10.437 v -38.824 H 965.84 v 38.414 c 0,4.367 -0.41,7.605 -1.231,9.789 -0.851,2.148 -2.32,3.89 -4.433,5.152 -2.149,1.297 -4.606,1.945 -7.473,1.945 -4.57,0 -8.492,-1.433 -11.801,-4.332 -3.308,-2.902 -4.949,-8.394 -4.949,-16.476 v -34.492 z" /><path
                 id="path5637"
                 style="fill:#000000;fill-opacity:1;fill-rule:nonzero;stroke:none"
                 d="m 999.855,1412.715 c 0,-8.289 1.637,-14.328 4.95,-18.113 3.308,-3.821 7.402,-5.731 12.383,-5.731 4.874,0 9.003,1.91 12.347,5.695 3.309,3.789 4.981,9.688 4.981,17.809 0,7.742 -1.707,13.543 -5.118,17.465 -3.445,3.922 -7.574,5.902 -12.418,5.902 -4.742,0 -8.765,-1.945 -12.144,-5.801 -3.309,-3.886 -4.981,-9.617 -4.981,-17.226 m -8.835,-37.934 10.406,-1.535 c 0.41,-3.207 1.636,-5.562 3.617,-7.027 2.66,-1.981 6.277,-2.969 10.879,-2.969 4.949,0 8.769,0.988 11.465,2.969 2.726,1.976 4.535,4.777 5.457,8.324 0.582,2.184 0.82,6.754 0.785,13.746 -4.672,-5.527 -10.473,-8.254 -17.465,-8.254 -8.699,0 -15.422,3.106 -20.164,9.379 -4.742,6.246 -7.129,13.785 -7.129,22.516 0,6.039 1.094,11.601 3.242,16.683 2.215,5.117 5.356,9.039 9.516,11.836 4.129,2.762 9.008,4.164 14.601,4.164 7.438,0 13.579,-3.039 18.422,-9.074 v 7.606 h 9.895 v -54.547 c 0,-9.825 -1.024,-16.821 -3.039,-20.914 -1.977,-4.09 -5.149,-7.332 -9.516,-9.719 -4.332,-2.391 -9.656,-3.582 -16.035,-3.582 -7.504,0 -13.609,1.703 -18.25,5.082 -4.641,3.41 -6.855,8.492 -6.687,15.316" /><path
                 id="path5639"
                 style="fill:#000000;fill-opacity:1;fill-rule:nonzero;stroke:none"
                 d="m 1094.543,1380.016 v 63.144 h 9.617 v -8.969 c 4.641,6.922 11.363,10.403 20.094,10.403 3.82,0 7.301,-0.68 10.508,-2.047 3.207,-1.363 5.558,-3.172 7.164,-5.391 1.601,-2.215 2.695,-4.844 3.344,-7.879 0.375,-2.011 0.578,-5.492 0.578,-10.437 v -38.824 h -10.711 v 38.414 c 0,4.367 -0.41,7.605 -1.227,9.789 -0.855,2.148 -2.32,3.89 -4.437,5.152 -2.149,1.297 -4.606,1.945 -7.469,1.945 -4.57,0 -8.496,-1.433 -11.805,-4.332 -3.308,-2.902 -4.98,-8.394 -4.98,-16.476 v -34.492 z" /><path
                 id="path5641"
                 style="fill:#000000;fill-opacity:1;fill-rule:nonzero;stroke:none"
                 d="m 1202.578,1411.719 c -3.887,-1.602 -9.723,-2.934 -17.465,-4.059 -4.402,-0.613 -7.539,-1.332 -9.347,-2.148 -1.809,-0.785 -3.243,-1.946 -4.231,-3.481 -0.988,-1.5 -1.5,-3.207 -1.5,-5.082 0,-2.832 1.09,-5.219 3.274,-7.133 2.152,-1.875 5.289,-2.828 9.449,-2.828 4.129,0 7.812,0.887 11.019,2.696 3.207,1.804 5.563,4.261 7.063,7.402 1.16,2.422 1.738,6.004 1.738,10.676 z m 0.887,-23.914 c -3.957,-3.375 -7.777,-5.731 -11.426,-7.129 -3.684,-1.399 -7.609,-2.082 -11.84,-2.082 -6.922,0 -12.246,1.672 -15.996,5.086 -3.687,3.375 -5.562,7.707 -5.562,12.961 0,3.14 0.683,5.937 2.117,8.496 1.398,2.558 3.238,4.605 5.523,6.172 2.285,1.535 4.844,2.695 7.711,3.48 2.082,0.547 5.254,1.125 9.485,1.606 8.664,1.054 15.043,2.25 19.101,3.714 0.035,1.469 0.07,2.391 0.07,2.766 0,4.367 -1.023,7.469 -3.035,9.211 -2.73,2.457 -6.824,3.648 -12.179,3.648 -5.051,0 -8.77,-0.886 -11.192,-2.625 -2.387,-1.773 -4.125,-4.914 -5.32,-9.382 l -10.438,1.433 c 0.954,4.469 2.524,8.086 4.672,10.813 2.184,2.797 5.356,4.914 9.485,6.379 4.129,1.503 8.871,2.253 14.328,2.253 5.39,0 9.754,-0.648 13.133,-1.91 3.343,-1.297 5.832,-2.867 7.437,-4.812 1.602,-1.91 2.695,-4.332 3.344,-7.266 0.34,-1.84 0.512,-5.117 0.512,-9.859 V 1406.5 c 0,-9.996 0.238,-16.273 0.679,-18.898 0.481,-2.629 1.367,-5.188 2.696,-7.575 h -11.153 c -1.094,2.219 -1.844,4.809 -2.152,7.778" /><path
                 id="path5643"
                 style="fill:#000000;fill-opacity:1;fill-rule:nonzero;stroke:none"
                 d="m 1271.203,1403.156 10.508,-1.398 c -1.129,-7.231 -4.094,-12.93 -8.836,-17.024 -4.711,-4.093 -10.543,-6.14 -17.434,-6.14 -8.629,0 -15.589,2.832 -20.843,8.461 -5.254,5.664 -7.879,13.75 -7.879,24.289 0,6.824 1.125,12.793 3.375,17.91 2.289,5.117 5.699,8.937 10.34,11.496 4.601,2.559 9.652,3.855 15.078,3.855 6.855,0 12.449,-1.742 16.816,-5.218 4.367,-3.481 7.164,-8.395 8.391,-14.774 l -10.403,-1.601 c -0.992,4.23 -2.73,7.437 -5.254,9.586 -2.523,2.113 -5.562,3.207 -9.144,3.207 -5.391,0 -9.789,-1.946 -13.133,-5.836 -3.375,-3.856 -5.082,-9.961 -5.082,-18.317 0,-8.461 1.637,-14.636 4.91,-18.492 3.242,-3.855 7.473,-5.765 12.727,-5.765 4.195,0 7.676,1.296 10.508,3.855 2.828,2.594 4.605,6.551 5.355,11.906" /><path
                 id="path5645"
                 style="fill:#000000;fill-opacity:1;fill-rule:nonzero;stroke:none"
                 d="m 1290.891,1380.016 v 87.16 h 10.714 v -31.246 c 4.981,5.765 11.29,8.664 18.899,8.664 4.672,0 8.73,-0.922 12.176,-2.762 3.445,-1.844 5.937,-4.402 7.406,-7.641 1.5,-3.242 2.25,-7.984 2.25,-14.16 v -40.015 h -10.711 v 40.015 c 0,5.356 -1.195,9.246 -3.48,11.703 -2.321,2.422 -5.629,3.649 -9.86,3.649 -3.172,0 -6.14,-0.817 -8.937,-2.488 -2.797,-1.637 -4.809,-3.856 -5.969,-6.688 -1.195,-2.797 -1.774,-6.687 -1.774,-11.633 v -34.558 z" /><path
                 id="path5647"
                 style="fill:#000000;fill-opacity:1;fill-rule:nonzero;stroke:none"
                 d="m 1405.523,1428.699 h 24.801 c 5.289,0 9.414,0.547 12.348,1.641 3.004,1.09 5.254,2.863 6.789,5.254 1.535,2.386 2.32,4.98 2.32,7.808 0,4.129 -1.5,7.508 -4.469,10.168 -3,2.66 -7.71,3.992 -14.191,3.992 h -27.598 z m -11.531,-48.679 v 87.16 h 38.653 c 7.777,0 13.679,-0.785 17.703,-2.352 4.062,-1.57 7.269,-4.301 9.722,-8.258 2.391,-3.988 3.618,-8.355 3.618,-13.168 0,-6.172 -2.012,-11.39 -6.04,-15.621 -3.988,-4.23 -10.164,-6.961 -18.523,-8.086 3.07,-1.468 5.355,-2.933 6.961,-4.367 3.344,-3.07 6.551,-6.957 9.586,-11.598 l 15.144,-23.71 h -14.496 l -11.531,18.148 c -3.379,5.223 -6.141,9.211 -8.359,11.977 -2.149,2.796 -4.125,4.742 -5.832,5.832 -1.739,1.125 -3.481,1.875 -5.254,2.32 -1.332,0.273 -3.446,0.441 -6.446,0.441 h -13.375 v -38.718 z" /><path
                 id="path5649"
                 style="fill:#000000;fill-opacity:1;fill-rule:nonzero;stroke:none"
                 d="m 1503.762,1389.602 1.535,-9.45 c -3.004,-0.648 -5.699,-0.957 -8.051,-0.957 -3.926,0 -6.926,0.614 -9.074,1.844 -2.117,1.227 -3.617,2.828 -4.504,4.844 -0.887,1.976 -1.332,6.207 -1.332,12.621 v 36.332 h -7.844 v 8.324 h 7.844 v 15.656 l 10.68,6.414 v -22.07 h 10.746 v -8.324 h -10.746 v -36.914 c 0,-3.07 0.172,-5.012 0.546,-5.899 0.376,-0.855 0.989,-1.535 1.84,-2.082 0.852,-0.511 2.082,-0.785 3.653,-0.785 1.191,0 2.761,0.172 4.707,0.446" /><path
                 id="path5651"
                 style="fill:#000000;fill-opacity:1;fill-rule:nonzero;stroke:none"
                 d="m 1526.66,1390.305 h 21.695 c 3.754,0 6.348,0.136 7.848,0.41 2.66,0.476 4.879,1.262 6.652,2.387 1.809,1.093 3.243,2.73 4.403,4.847 1.16,2.113 1.738,4.571 1.738,7.332 0,3.242 -0.82,6.074 -2.492,8.496 -1.668,2.387 -3.988,4.094 -6.957,5.047 -2.934,0.957 -7.199,1.434 -12.723,1.434 h -20.164 z m 0,40.254 h 18.832 c 5.117,0 8.801,0.343 11.02,1.023 2.933,0.856 5.117,2.285 6.617,4.332 1.5,2.016 2.25,4.574 2.25,7.609 0,2.899 -0.715,5.426 -2.078,7.641 -1.434,2.219 -3.379,3.719 -5.973,4.504 -2.558,0.82 -6.992,1.227 -13.269,1.227 h -17.399 z m -11.562,-50.555 v 87.195 h 32.746 c 6.621,0 11.976,-0.887 16,-2.66 4.027,-1.742 7.164,-4.473 9.449,-8.156 2.285,-3.649 3.445,-7.469 3.445,-11.496 0,-3.719 -1.023,-7.231 -3.035,-10.508 -2.047,-3.309 -5.082,-5.969 -9.176,-7.981 5.289,-1.535 9.313,-4.195 12.18,-7.914 2.832,-3.718 4.231,-8.121 4.231,-13.203 0,-4.058 -0.856,-7.879 -2.594,-11.394 -1.707,-3.512 -3.856,-6.207 -6.379,-8.117 -2.524,-1.911 -5.731,-3.309 -9.551,-4.297 -3.824,-0.957 -8.496,-1.469 -14.059,-1.469 z" /><path
                 id="path5653"
                 style="fill:#ffffff;fill-opacity:1;fill-rule:evenodd;stroke:none"
                 d="m 108.734,1.445 -5.593,0.172 -5.594,0.477 -5.426,0.683 -5.422,0.852 -5.254,1.195 -4.914,1.535 -5.25,1.703 -4.605,1.844 -4.914,2.219 -4.571,2.352 -4.57,2.73 -4.574,2.727 -4.094,3.039 -4.058,3.207 -3.887,3.41 -3.719,3.547 -3.582,3.718 -3.379,3.922 -3.207,3.891 -3.07,4.57 -2.727,4.231 -2.695,4.402 -2.356,4.774 -2.218,4.742 -1.875,4.914 -1.707,4.91 -1.5,5.254 -1.192,5.254 -0.855,5.289 -0.68,5.387 -0.512,5.425 -0.172,5.594 v 1584.063 l 0.172,5.593 0.512,5.426 0.68,5.422 0.855,5.254 1.192,5.254 1.5,5.082 1.707,5.086 1.875,4.91 2.218,4.742 2.356,4.742 2.695,4.266 2.727,4.398 3.07,4.231 3.207,4.058 3.379,4.094 3.582,3.719 3.719,3.547 3.887,3.414 4.058,3.207 4.094,3.07 4.574,2.692 4.57,2.73 4.571,2.356 4.914,2.046 4.605,2.012 5.25,1.707 4.914,1.363 5.254,1.364 5.422,0.855 5.426,0.645 5.594,0.511 5.593,0.172 h 2483.875 l 5.563,-0.172 5.629,-0.511 5.422,-0.645 5.425,-0.855 5.254,-1.364 4.91,-1.363 4.915,-1.707 4.91,-2.012 4.914,-2.046 4.57,-2.356 4.606,-2.73 4.57,-2.692 4.058,-3.07 4.063,-3.207 3.922,-3.414 3.719,-3.547 3.546,-3.719 3.411,-4.094 3.242,-4.058 3.004,-4.231 2.726,-4.398 2.696,-4.266 2.386,-4.742 2.219,-4.742 1.875,-4.91 1.672,-5.086 1.367,-5.082 1.363,-5.254 0.852,-5.254 0.684,-5.422 0.476,-5.426 0.172,-5.593 V 109.414 l -0.172,-5.594 -0.476,-5.425 -0.684,-5.387 -0.852,-5.289 -1.363,-5.254 -1.367,-5.254 -1.672,-4.91 -1.875,-4.914 -2.219,-4.742 -2.386,-4.774 -2.696,-4.402 -2.726,-4.231 -3.004,-4.57 -3.242,-3.891 -3.411,-3.922 -3.546,-3.718 -3.719,-3.547 -3.922,-3.41 -4.063,-3.207 -4.058,-3.039 -4.57,-2.727 -4.606,-2.73 -4.57,-2.352 -4.914,-2.219 -4.91,-1.844 -4.915,-1.703 -4.91,-1.535 -5.254,-1.195 -5.425,-0.852 -5.422,-0.683 -5.629,-0.477 -5.563,-0.172 z" /><path
                 id="path5655"
                 style="fill:#000000;fill-opacity:1;fill-rule:evenodd;stroke:none"
                 d="M 108.738,1802 C 46.875,1800.363 2.164,1755.035 0,1693.465 V 109.383 C 1.281,48.371 47.992,2.359 108.738,0.914 h 2483.891 c 61.848,1.145 106.492,47.301 108.668,108.469 v 1584.078 c -1.684,61.988 -47.113,106.348 -108.668,108.539 z m 0,-0.555 h 2483.871 c 60.868,-1.066 106.329,-47.605 108.141,-107.968 V 109.414 C 2699.34,47.98 2653.621,3.332 2592.609,1.445 H 108.738 C 47.832,2.473 2.367,49 0.562,109.414 v 1584.063 c 1.422,61.371 47.227,106.093 108.176,107.968 z" /></g></g></g></g></g><g
       id="g5657"><g
         clip-path="url(#clipPath5663)"
         id="g5659"><g
           transform="translate(0,-0.91394)"
           id="g5665"><g
             id="g5667"><g
               clip-path="url(#clipPath5673)"
               id="g5669"><g
                 id="g5675" /><g
                 id="g5677"><g
                   clip-path="url(#clipPath5683)"
                   id="g5679"><g
                     id="g5685"><g
                       id="g5687"><g
                         clip-path="url(#clipPath5693)"
                         id="g5689"><g
                           id="g5695"><path
                             id="path5697"
                             style="fill:#633a34;fill-opacity:1;fill-rule:evenodd;stroke:none"
                             d="m 103.832,1760.93 c -36.016,-3.957 -60.453,-27.778 -63.93,-64.067 V 106.047 C 42.477,70.426 70.848,41.949 107.207,41.949 h 2490.289 c 36.024,4.117 60.477,27.746 63.926,64.098 v 1590.816 c -3.641,38.399 -27.098,58.532 -63.926,64.067 z m 134.109,-134.27 h 508.188 c -1.004,-5.652 -1.625,-10.926 -1.625,-10.926 0,0 -40.516,0.231 -54.559,-7.793 -14.039,-8.023 -23.894,-34.328 -23.894,-34.328 0,0 -24.414,4.93 -40.059,-4.699 -15.644,-9.629 -22.351,-28.43 -22.351,-28.43 0,0 -17.192,5.454 -28.024,2.645 -10.832,-2.809 -15.644,-12.035 -15.246,-20.457 0.402,-8.426 0.231,-41.231 0.863,-51.926 0.274,-9.16 10.317,-11.851 10.774,-5.043 -0.403,3.211 -0.692,36.098 -0.403,40.52 0.457,6.984 2.754,11.754 9.172,13.757 6.418,2.008 20.516,1.086 24.125,-2.527 3.61,-1.93 13.637,-1.98 15.645,6.82 1.605,6.422 12.441,19.61 20.465,24.422 10.195,5.555 29.508,-2.441 37.3,12.086 0.805,2.004 4.012,6.418 7.223,12.035 3.207,5.618 12.434,16.047 27.68,17.25 15.242,1.204 42.285,-4.011 46.699,-4.011 4.414,0 7.859,1.601 9.863,6.015 1.743,3.828 9.184,23.825 20.801,34.59 h 597.371 c -25.07,-26.312 -43.363,-24.441 -89.594,-31.203 -28.3,-5.148 -46.312,-24.297 -56.316,-31.16 -24.758,-16.699 -59.711,-17.649 -91.195,-12.008 -20.371,5.223 -20.758,12.762 -46.024,0.859 -10.578,-4.574 -23.441,-5.433 -39.453,-3.433 -16.008,2.004 -67.75,16.582 -92.336,24.015 -24.586,7.434 -43.738,15.153 -66.605,11.149 -22.871,-4 -45.457,-21.441 -59.176,-34.02 -14.719,-12.957 -46.438,-17.464 -71.184,-18.007 -24.3,0.855 -29.445,-1.715 -35.164,-4.29 -13.98,-6.73 -21.726,-22.714 -46.023,-22.296 -2.859,1.429 -20.582,2.57 -32.016,0.57 -11.437,-2 -24.586,-14.293 -24.586,-14.293 0,0 -7.433,2.285 -18.582,-0.859 -11.148,-3.145 -14.578,-10.004 -14.007,-17.723 0.57,-7.719 3.144,-9.719 3.144,-9.719 0.57,5.715 9.434,12.293 14.863,12.008 5.434,-0.289 28.473,-1.879 34.59,1.43 10.578,5.715 19.606,5.672 28.59,3.429 10.293,-2.574 14.863,-7.148 24.871,-4.859 10.004,2.285 34.465,24.582 46.309,24.582 20.297,0 57.75,1.715 79.187,3.434 21.442,1.714 34.938,20.367 43.453,28.586 16.297,15.722 48.313,12.007 63.75,9.148 15.438,-2.859 97.485,-36.02 115.778,-38.309 23.441,-7.718 98.746,2.508 118.636,-3.144 27.161,-7.719 69.942,-18.641 89.196,-17.438 27.441,1.715 46.593,26.012 80.613,14.864 35.352,-14.172 76.695,-23.473 116.637,0.574 12.863,8.004 19.836,-5.574 55.746,-6.004 35.906,-0.426 44.594,22.012 56.316,22.871 11.719,0.856 28.012,-14.293 47.738,-15.723 19.727,-1.429 33.45,16.008 58.032,26.301 63.797,24.504 133.16,0.039 198.113,5.715 17.152,2.859 43.164,37.738 60.602,39.453 17.441,1.715 24.015,-9.437 52.316,-16.297 28.301,-6.863 35.734,12.293 52.598,17.438 16.867,5.144 36.879,-1.141 62.035,-8.004 25.156,-6.859 45.742,6.004 69.469,18.297 13.687,7.09 46.546,27.742 72.101,44.066 h 217.965 V 1051.613 L 1458.07,1234.742 c -3.109,0.563 -7.718,0.641 -10.75,0.574 -20.402,-0.582 -37.746,-10.582 -46.14,-24.796 l -0.051,0.242 -7.16,52.136 -189.719,43.286 0.148,7.144 c 0,0 0,5.539 -11.078,9.16 -33.125,10.621 -56.914,13.637 -88.84,3.836 -3.835,-1.066 -3.644,-4.687 -3.644,-4.687 l -0.289,-5.043 c -17.527,-1.082 -39.75,-4.344 -57.438,-9.239 -5.793,-1.601 -9.527,-2.714 -12.109,-3.539 0,9.02 -0.016,16.664 -0.066,17.778 -0.184,3.949 -2.594,6.562 -5.539,10.019 -10.106,8.883 -32.165,12.414 -50.532,2.325 -4.726,-2.75 -5.523,-5.84 -5.523,-8.555 v -18.113 l -13.606,2.48 c 0.024,16.602 0.016,32.527 -0.093,34.301 -0.243,3.945 -3.422,6.562 -7.313,10.019 -13.351,8.883 -42.492,12.414 -66.758,2.325 -5.117,-1.922 -7.297,-5.844 -7.297,-8.559 v -23.242 l -13.539,2.468 c 0.008,12.622 -0.007,23.708 -0.086,25.133 -0.21,3.946 -2.246,6.563 -5.609,10.016 -11.547,8.883 -37.453,12.418 -58.434,2.328 -4.808,-2.394 -6.304,-5.844 -6.304,-8.559 v -16.082 l -13.555,2.813 c 0.024,15.918 0.016,31.953 -0.094,33.707 -0.246,3.949 -3.472,7.473 -7.422,10.93 -10.363,9.375 -38.73,13.625 -69.628,3.308 -7.09,-2.367 -7.407,-5.465 -7.407,-8.179 l 0.606,-22.508 -76.207,13.886 c 0.051,15.915 -0.422,58.743 -0.633,62.079 -0.246,3.949 -4.211,8.671 -8.902,8.425 -4.688,-0.246 -34.543,-0.246 -38.989,-0.246 -4.441,0 -7.402,-5.465 -7.402,-8.179 v -42.868 l -64.82,-6.429 c -2.719,-0.028 -3.797,-2.293 -3.879,-4.77 l -0.344,-10.363 c -30.266,-2.117 -54.141,-42.328 -54.176,-91.254 0.02,-27.816 7.883,-54.109 21.356,-71.434 -3.629,-1.941 -6.578,-3.711 -7.91,-4.949 -4.633,-4.312 -9.219,-7.109 -9.575,-15.683 l -2.472,-29.914 c -16.246,0.25 -17.91,-4.301 -17.645,-10.809 l 5.68,-94.727 2032.972,-198.8 V 839.648 L 237.941,1056.93 Z m 333.754,-192.109 h 9.289 v -4.395 h -9.445 l -0.617,-39.5 h -3.863 c 0,0 0.211,37.895 0.246,39.5 0.074,3.145 0.425,4.395 4.39,4.395 z m 136.422,-49.297 h 5.852 c -0.254,-4.477 -0.043,-9.039 -5.84,-9.203 h -7.621 l 0.09,5.261 h 5.703 c 1.574,0.016 1.695,1.29 1.816,3.942 z m -206.801,-20.106 c 24.641,-0.226 42.243,-33.46 41.934,-57.75 -14.961,27.079 -31.582,60.664 -77.523,37.332 8.214,12.739 22.8,19.942 34.41,20.403 0.394,0.015 0.789,0.019 1.179,0.015 z m 304.317,-3.753 h 5.847 c -0.253,-4.477 -0.042,-9.04 -5.835,-9.204 h -7.622 l 0.086,5.262 h 5.707 c 1.575,0.02 1.696,1.289 1.817,3.942 z m 82.765,-6.75 h 5.852 c -0.254,-4.477 -0.043,-9.04 -5.836,-9.204 h -7.625 l 0.09,5.262 h 5.707 c 1.57,0.016 1.691,1.289 1.812,3.942 z m 92.524,-21.004 h 5.848 c -0.254,-4.481 -0.043,-9.039 -5.836,-9.207 h -7.622 l 0.09,5.261 h 5.703 c 1.575,0.02 1.692,1.293 1.817,3.946 z m -287.34,-13.305 460.066,-81.078 v 26.801 l -120.847,22.234 c 0,0 28.508,15.996 76.863,5.004 53.09,-12.067 52.574,-23.09 52.574,-23.09 v -41.187 l -470.148,82.859 z m 534.922,-53.207 50.348,-13.59 v -94.66 l -50.348,11.766 z m 8.586,-11.215 v -78.457 l 33.172,-7.75 v 77.254 z m 66.535,-13.137 34.27,-9.914 v -65.281 l -34.27,7.895 z m 8.59,-11.425 v -49.043 l 17.09,-3.938 v 48.035 z m 148.074,-5.829 707.594,-128.246 c 0,0 3.207,-1.101 4.726,-3.757 1.516,-2.657 1.039,-6.153 1.039,-6.153 l -675.003,113.281 c 0,0 -3.184,7.45 -11.532,12.004 -8.347,4.555 -26.824,12.871 -26.824,12.871 z m 38.988,-36.289 c 1.157,0 2.336,-0.011 3.547,-0.046 27.211,-0.809 68.571,-16.602 78.953,-50.047 V 999.145 l -22.914,3.011 -95.879,129.535 v -126.449 l -438.453,54.043 v 29.016 l -185.054,20.937 0.964,8.532 192.68,-21.797 v -29.094 l 421.274,-51.926 v 128.344 l -0.059,0.082 0.059,13.535 v 11.285 h 0.05 l 0.012,2.25 -0.062,0.012 c 0,0 9.085,18.656 44.882,18.773 z m 125.871,-33.289 53.379,-9.824 v -79.371 l -53.379,8.02 z m 8.59,-10.312 v -15.43 l 36.203,-5.902 v 14.672 z m 84.617,-4.625 53.375,-9.824 v -77.93 l -53.375,8.019 z m 8.586,-10.313 v -15.437 l 36.204,-5.981 v 14.754 z m 78.067,-4.047 53.379,-9.007 v -76.852 l -53.379,8.02 z m -171.27,-5.148 v -39.336 l 36.203,-5.437 v 38.871 z m 179.86,-5.012 v -15.238 l 36.199,-5.633 v 14.762 z m 75.941,-3.863 50.352,-9.117 v -74.328 l -50.352,7.015 z m -162.598,-6.074 v -37.887 l 36.204,-5.434 v 37.344 z m 171.188,-4.211 v -14.461 l 33.172,-5.438 v 13.891 z m 68.609,-2.352 50.348,-8.203 v -73.637 l -50.348,7.016 z m 225.942,-7.187 269.715,-48.977 v -7.262 l -263.95,46.325 c 0,0 0.203,1.355 -0.039,2.996 -0.01,0.015 -0.01,0.027 -0.01,0.043 0,0 0,0.012 0,0.015 -0.015,0.11 -0.043,0.219 -0.062,0.332 -0.156,0.911 -0.426,1.883 -0.93,2.766 -1.519,2.656 -4.722,3.762 -4.726,3.762 z m -379.082,-0.246 v -36.352 l 36.199,-5.437 v 36.16 z m 161.73,-2.668 v -14.422 l 33.168,-5.57 v 14.585 z m 69.574,-3.41 50.348,-8.204 v -71.894 l -50.348,7.019 z m -146.773,-7.301 v -35.508 l 33.172,-4.621 v 34.691 z m 155.359,-2.797 v -13.332 l 33.172,-5.68 v 13.606 z m 120.688,-3.875 c 0.84,0 1.699,-0.01 2.578,-0.035 19.758,-0.617 49.801,-12.637 57.34,-38.098 V 917.184 l -13.457,1.515 -72.817,109.996 V 927.887 l -6.238,0.804 v 108.84 l -0.047,0.063 0.047,10.304 v 8.59 h 0.035 l 0.01,1.715 -0.043,0.01 c 0,0 6.598,14.203 32.594,14.293 z m -198.848,-5.75 v -34.117 l 33.168,-4.621 v 33.168 z m 78.16,-12.418 v -33.465 l 33.172,-4.621 v 32.402 z m 237.672,-7.613 54.895,-8.965 V 970.34 l -54.895,7.617 z m 8.59,-10.106 v -13.195 l 37.715,-6.055 v 13.09 z m 77.766,-4.179 51.867,-9.063 v -65.914 l -51.867,7.703 z m 8.589,-10.219 v -12.789 l 34.688,-5.453 v 12.179 z m -86.355,-7.496 v -29.289 l 37.715,-5.235 v 28.469 z m 86.355,-13.989 V 972.57 l 34.688,-5.148 v 27.863 z M 725.676,957.867 c 78.554,-0.172 154.359,-26.015 212.297,-72.629 60.785,-48.906 97,-116.738 100.793,-188.781 1.488,-56.531 0.281,-187.691 0.281,-187.691 l -128.145,1.136 v 214.375 c -1.722,62.766 -37.312,120.328 -88.84,162.696 -40.968,33.691 -92.128,57.929 -145.16,67.664 12.172,1.64 24.575,2.679 37.164,3.07 3.875,0.113 7.746,0.168 11.61,0.16 z m -85.832,-10.242 c 62.902,-3.375 126.543,-29.602 174.972,-69.426 29.954,-24.633 54.024,-54.363 68.75,-86.969 -12.054,2.79 -59.425,12.219 -128.613,6.653 -80.594,-6.485 -307.566,-41.688 -307.566,-41.688 0,0 -14.821,-19.402 -14.821,-51.879 V 597.781 l 327.622,-86.543 -348.969,3.094 v 180.082 c 5.324,121 100.258,221.688 228.621,253.211 z m 760.73,-56.637 c 62.324,0.535 122.633,-19.879 168.551,-57.195 47.398,-38.52 75.641,-91.945 78.598,-148.688 l 0.218,-181.738 -101.105,0.895 V 689.98 c -1.703,62.051 -28.68,115.082 -76.125,152.688 -25.848,20.484 -57.719,36.414 -94.832,46.988 6.152,0.606 12.375,1.016 18.656,1.215 2.016,0.059 4.027,0.098 6.039,0.117 z m -50.418,-5.093 c 46.098,-9.778 84.621,-27.317 114.434,-50.946 19.289,-15.285 34.953,-33.105 46.734,-53.101 -59.316,-11.735 -128.222,-17.297 -199.816,-15.274 -19.285,0.551 -110.02,6.746 -110.02,6.746 0,0 -29.254,-50.8 -29.254,-83.726 V 562.375 l 278.907,-57.262 -292.731,2.594 v 175.762 c 4.324,99.543 84.875,181.621 191.746,202.426 z m 573.715,-42.18 c 50.348,0.433 99.067,-16.059 136.16,-46.203 38.293,-31.117 61.106,-74.278 63.492,-120.117 l 0.711,-104.684 336.899,-28.231 v -27.269 l -717.715,60.144 0.445,-37.183 c 0,0 186.59,-30.785 189.731,-31.41 2.199,-0.442 3.765,-5.16 4.515,-7.969 l -209.867,1.863 v 173.418 c 3.399,78.25 65.106,143.153 147.977,162.074 43,-5.113 78.121,-19.019 103.843,-39.445 5.372,-4.269 10.329,-8.82 14.879,-13.633 -14.671,-0.441 -204.574,-6.23 -208.863,-10.043 -4.457,-3.961 -42.164,-47.058 -42.66,-79.754 -0.492,-32.691 0,-90.648 0,-90.648 l 295.184,-24.738 v 118.117 c -1.192,43.547 -20.118,80.828 -53.356,107.223 -21.969,17.445 -50.109,30.171 -83.469,37.187 5.668,0.609 11.411,1.024 17.215,1.207 1.629,0.047 3.254,0.082 4.879,0.094 z M 1334.359,628.293 c 69.973,-2.387 132.911,-5.156 202.633,-7.871 v -26.504 l -202.293,19.426 c -4.097,-0.047 -7.465,3.211 -7.558,7.304 -0.098,4.094 3.121,7.504 7.218,7.645 z M 848.723,371.105 c 16.156,0 29.273,-4.312 39.351,-12.933 10.164,-8.535 15.246,-19.926 15.246,-34.176 0,-15.34 -6.761,-25.867 -20.285,-31.586 13.524,-5.449 20.285,-15.75 20.285,-30.906 v -50.512 c 0,-11.074 -3.629,-20.515 -10.89,-28.32 -7.172,-7.805 -16.614,-11.711 -28.321,-11.711 h -17.562 v 26.687 h 9.937 c 12.254,0 18.383,4.946 18.383,14.84 v 49.559 c 0,10.984 -5.176,16.476 -15.523,16.476 h -16.473 v 26.684 h 17.02 c 9.984,0 14.976,5.492 14.976,16.477 0,7.261 -1.453,12.296 -4.359,15.113 -5.172,4.172 -13.387,6.125 -24.645,5.851 -10.347,-0.269 -17.562,-1.906 -21.644,-4.902 -3.996,-2.902 -6.129,-7.215 -6.399,-12.934 V 170.961 h -28.457 v 153.851 c 0,15.524 5.582,27.094 16.746,34.719 11.254,7.715 25.461,11.574 42.614,11.574 z M 340.66,369.336 h 31.86 l 31.175,-141.055 h 0.547 l 38.531,141.055 h 21.649 l 38.531,-141.055 h 0.543 l 31.18,141.055 h 31.859 L 516.84,170.961 h -25.055 l -37.984,142.961 h -0.547 L 415.406,170.961 h -25.051 z m 384.594,0 h 28.453 v -28.457 h -28.453 z m 472.121,0 h 28.457 v -28.457 h -28.457 z m 520.242,0 h 28.457 V 207.449 c 0,-6.535 3.539,-9.801 10.617,-9.801 h 9.668 v -26.687 h -12.527 c -10.348,0 -18.969,2.496 -25.867,7.492 -6.899,5.082 -10.348,13.977 -10.348,26.684 z m 80.977,0 h 28.457 v -72.16 c 5.261,4.992 10.801,9.031 16.609,12.117 5.899,3.086 12.528,4.629 19.879,4.629 8.621,0 16.066,-1.77 22.328,-5.309 6.262,-3.449 11.438,-7.808 15.52,-13.074 3.906,-5.082 6.539,-11.027 7.898,-17.836 1.453,-6.715 2.18,-18.695 2.18,-35.941 0,-17.43 -0.727,-29.59 -2.18,-36.489 -1.359,-6.808 -3.992,-12.707 -7.898,-17.699 -4.082,-5.355 -9.258,-9.758 -15.52,-13.207 -6.262,-3.359 -13.707,-5.039 -22.328,-5.039 -14.523,0 -26.687,5.445 -36.488,16.34 v -14.707 h -28.457 z m 294.89,0 h 28.454 v -72.16 h 0.546 c 8.805,11.164 21.059,16.746 36.762,16.746 10.981,0 21.555,-4.176 31.723,-12.527 10.254,-8.352 15.383,-20.512 15.383,-36.489 v -93.945 h -28.454 v 84.144 c 0,9.528 -2.679,16.973 -8.035,22.329 -5.265,5.355 -11.843,8.031 -19.742,8.031 -8.168,0 -14.93,-2.676 -20.285,-8.031 -5.266,-5.356 -7.898,-12.801 -7.898,-22.329 v -84.144 h -28.454 z m -817.699,-14.16 h 28.453 v -42.887 h 20.696 v -21.785 h -20.696 V 208.27 c 0,-7.082 3.36,-10.622 10.074,-10.622 h 10.622 v -26.687 h -14.84 c -9.895,0 -18.11,2.996 -24.645,8.988 -6.441,5.989 -9.664,14.567 -9.664,25.731 v 84.824 h -14.16 v 21.785 h 14.16 z m 219.137,0 h 28.457 v -42.887 h 20.695 v -21.785 h -20.695 V 208.27 c 0,-7.082 3.359,-10.622 10.074,-10.622 h 10.621 v -26.687 h -14.84 c -9.894,0 -18.109,2.996 -24.644,8.988 -6.445,5.989 -9.668,14.567 -9.668,25.731 v 84.824 h -14.16 v 21.785 h 14.16 z M 633.316,313.922 c 15.52,0 29.09,-5.402 40.707,-16.203 11.622,-10.711 17.43,-25.188 17.43,-43.43 V 230.871 H 603.5 c 0,-11.621 3.129,-20.336 9.395,-26.144 6.351,-5.809 14.429,-8.711 24.234,-8.711 11.707,0 22.055,4.535 31.043,13.613 l 20.558,-17.563 c -6.992,-8.171 -14.886,-14.023 -23.691,-17.562 -8.715,-3.449 -17.836,-5.176 -27.367,-5.176 -14.524,0 -28.59,4.676 -42.207,14.024 -13.613,9.441 -20.422,28.683 -20.422,57.73 0,27.5 6.262,46.516 18.789,57.047 12.617,10.527 25.777,15.793 39.484,15.793 z m 360.715,0 c 15.524,0 29.094,-5.402 40.711,-16.203 11.617,-10.711 17.426,-25.188 17.426,-43.43 v -23.418 h -87.953 c 0,-11.621 3.133,-20.336 9.394,-26.144 6.356,-5.809 14.434,-8.711 24.235,-8.711 11.711,0 22.058,4.535 31.043,13.613 l 20.558,-17.563 c -6.988,-8.171 -14.883,-14.023 -23.687,-17.562 -8.715,-3.449 -17.836,-5.176 -27.367,-5.176 -14.524,0 -28.594,4.676 -42.207,14.024 -13.618,9.441 -20.426,28.683 -20.426,57.73 0,27.5 6.265,46.516 18.789,57.047 12.617,10.527 25.777,15.793 39.484,15.793 z m 158.399,0 c 10.347,0 20.195,-3.633 29.543,-10.895 l -20.559,-24.504 c -6.172,4.629 -12.434,6.942 -18.789,6.942 -6.988,0 -13.344,-2.36 -19.063,-7.078 -5.624,-4.629 -8.437,-12.117 -8.437,-22.465 v -84.961 h -28.457 v 141.328 h 28.457 v -15.113 h 0.543 c 8.805,11.164 21.059,16.746 36.762,16.746 z m 467.957,0 c 17.429,0 31.586,-3.406 42.48,-10.211 10.891,-6.809 16.336,-18.926 16.336,-36.356 v -96.394 h -28.316 v 12.527 h -0.684 c -5.719,-9.437 -17.336,-14.16 -34.851,-14.16 -15.797,0 -28.051,4.086 -36.762,12.254 -8.715,8.258 -13.074,18.563 -13.074,30.906 0,11.164 3.859,20.922 11.574,29.274 7.715,8.347 19.199,12.527 34.445,12.527 h 39.352 v 14.703 c 0,12.07 -9.668,18.11 -29.004,18.11 -13.434,0 -22.371,-3.586 -26.821,-10.758 l -22.328,16.883 c 9.895,13.796 25.778,20.695 47.653,20.695 z m 372.836,0 c 17.429,0 31.589,-3.406 42.48,-10.211 10.891,-6.809 16.34,-18.926 16.34,-36.356 v -96.394 h -28.32 v 12.527 h -0.684 c -5.715,-9.437 -17.336,-14.16 -34.851,-14.16 -15.793,0 -28.051,4.086 -36.762,12.254 -8.715,8.258 -13.071,18.563 -13.071,30.906 0,11.164 3.856,20.922 11.571,29.274 7.719,8.347 19.199,12.527 34.449,12.527 h 39.348 v 14.703 c 0,12.07 -9.668,18.11 -29,18.11 -13.434,0 -22.375,-3.586 -26.825,-10.758 l -22.328,16.883 c 9.895,13.796 25.778,20.695 47.653,20.695 z m 320.332,0 c 10.984,0 21.558,-4.176 31.722,-12.527 10.258,-8.352 15.387,-20.512 15.387,-36.489 v -93.945 h -28.457 v 84.144 c 0,9.528 -2.676,16.973 -8.031,22.329 -5.266,5.355 -11.848,8.031 -19.742,8.031 -8.168,0 -14.93,-2.676 -20.286,-8.031 -5.265,-5.356 -7.898,-12.801 -7.898,-22.329 v -84.144 h -28.457 v 141.328 h 28.457 v -15.113 h 0.543 c 8.805,11.164 21.059,16.746 36.762,16.746 z M 725.254,312.289 h 28.453 V 170.961 h -28.453 z m 472.121,0 h 28.457 V 170.961 h -28.457 z m 163.949,0 h 101.43 v -22.601 l -70.797,-92.04 h 70.797 v -26.687 h -105.379 v 22.469 l 70.797,93.672 h -66.848 z M 633.316,287.102 c -8.441,0 -15.476,-2.817 -21.105,-8.442 -5.535,-5.629 -8.441,-13.754 -8.711,-24.371 h 59.633 c -0.453,10.617 -3.449,18.742 -8.985,24.371 -5.539,5.625 -12.48,8.442 -20.832,8.442 z m 360.715,0 c -8.441,0 -15.472,-2.817 -21.101,-8.442 -5.535,-5.629 -8.442,-13.754 -8.715,-24.371 h 59.637 c -0.454,10.617 -3.45,18.742 -8.989,24.371 -5.535,5.625 -12.48,8.442 -20.832,8.442 z m 860.93,-1.637 c -13.344,0 -21.332,-4.766 -23.961,-14.293 -2.633,-9.531 -3.949,-19.336 -3.949,-29.41 0,-10.348 1.316,-20.289 3.949,-29.817 2.629,-9.531 10.617,-14.297 23.961,-14.297 13.344,0 21.332,4.582 23.961,13.75 2.726,9.168 4.086,19.29 4.086,30.364 0,10.8 -1.36,20.785 -4.086,29.953 -2.629,9.168 -10.617,13.75 -23.961,13.75 z m -238.113,-54.594 c -16.43,0 -24.645,-5.676 -24.645,-17.019 0,-4.813 2.043,-8.989 6.129,-12.528 4.176,-3.539 11.07,-5.308 20.691,-5.308 11.801,0 20.063,1.316 24.782,3.945 4.722,2.633 7.082,9.488 7.082,20.562 v 10.348 z m 372.836,0 c -16.43,0 -24.645,-5.676 -24.645,-17.019 0,-4.813 2.043,-8.989 6.129,-12.528 4.176,-3.539 11.074,-5.308 20.695,-5.308 11.797,0 20.059,1.316 24.778,3.945 4.722,2.633 7.082,9.488 7.082,20.562 v 10.348 z" /></g></g></g></g></g></g></g></g></g></g></g></g></svg>