<?xml version="1.0" encoding="UTF-8" standalone="no"?>
<svg
   xmlns:dc="http://purl.org/dc/elements/1.1/"
   xmlns:cc="http://creativecommons.org/ns#"
   xmlns:rdf="http://www.w3.org/1999/02/22-rdf-syntax-ns#"
   xmlns:svg="http://www.w3.org/2000/svg"
   xmlns="http://www.w3.org/2000/svg"
   xmlns:sodipodi="http://sodipodi.sourceforge.net/DTD/sodipodi-0.dtd"
   xmlns:inkscape="http://www.inkscape.org/namespaces/inkscape"
   viewBox="0 0 300.85877 235.29518"
   height="235.29518"
   width="300.85876"
   xml:space="preserve"
   version="1.1"
   id="svg3485"
   sodipodi:docname="Zeichen_101-14_-_Amphibienwanderung,_StVO_2017.svg"
   inkscape:version="1.0.2-2 (e86c870879, 2021-01-15)"><sodipodi:namedview
     pagecolor="#ffffff"
     bordercolor="#666666"
     borderopacity="1"
     objecttolerance="10"
     gridtolerance="10"
     guidetolerance="10"
     inkscape:pageopacity="0"
     inkscape:pageshadow="2"
     inkscape:window-width="1920"
     inkscape:window-height="1001"
     id="namedview11"
     showgrid="false"
     inkscape:zoom="1.0001474"
     inkscape:cx="130.42925"
     inkscape:cy="-22.095119"
     inkscape:window-x="-9"
     inkscape:window-y="-9"
     inkscape:window-maximized="1"
     inkscape:current-layer="g3495" /><metadata
     id="metadata3491"><rdf:RDF><cc:Work
         rdf:about=""><dc:format>image/svg+xml</dc:format><dc:type
           rdf:resource="http://purl.org/dc/dcmitype/StillImage" /><dc:title /></cc:Work></rdf:RDF></metadata><defs
     id="defs3489" /><g
     transform="matrix(1.25,0,0,-1.25,-293.15,349.71625)"
     id="g3493"><g
       id="g3495"><path
         id="path3503"
         style="fill:#040404;fill-opacity:1;fill-rule:nonzero;stroke:none"
         d="m 304.453,279.773 c -6.355,0 -17.254,-1.816 -29.969,-6.359 -8.175,-2.727 -16.351,-5.449 -19.984,-5.449 -14.531,-1.817 -19.98,-5.45 -19.98,-13.625 0,-4.539 4.543,-13.621 9.082,-17.258 5.449,-5.449 22.707,-19.071 27.25,-21.797 1.816,-1.816 4.539,-3.633 4.539,-3.633 0,-0.906 7.265,-5.449 16.347,-11.808 14.535,-9.083 18.168,-13.622 13.625,-13.622 -3.633,0 -39.054,24.524 -56.312,39.055 -7.266,6.356 -9.082,5.449 -4.539,-3.633 5.449,-12.715 26.34,-29.972 53.586,-42.687 8.175,-4.543 9.082,-4.543 9.992,-9.082 1.816,-9.992 0.906,-10.903 -6.36,-10.903 -3.632,-0.906 -9.992,-1.816 -14.531,-3.632 l -7.265,-2.723 -7.266,2.723 c -5.453,1.816 -9.086,4.543 -12.719,8.175 -2.722,2.727 -5.449,5.45 -7.265,5.45 -2.723,0 -8.172,-4.543 -8.172,-8.176 0,-3.633 4.539,-7.266 9.082,-7.266 1.816,0 3.633,-0.906 3.633,-1.816 0,-1.817 -2.727,-3.633 -7.266,-2.723 -7.266,0.906 -11.809,-4.543 -7.266,-9.082 1.817,-2.726 6.356,-2.726 9.989,-0.91 1.816,0.91 2.726,0.91 3.632,-1.816 1.817,-1.817 0.911,-4.54 -1.816,-4.54 -4.539,0 -7.266,-8.175 -3.633,-12.718 4.543,-6.356 14.531,-1.817 14.531,6.359 0,0.906 1.817,0.906 4.543,0.906 11.809,-2.722 29.063,0 42.688,6.36 l 8.176,3.633 5.449,-2.723 c 3.633,-1.817 7.266,-2.727 13.621,-3.633 8.176,-0.91 9.086,-0.91 9.992,-3.637 0.91,-3.632 0.91,-3.632 -0.906,-3.632 -3.633,0 -7.27,-3.633 -6.359,-6.356 0,-0.91 0.91,-1.816 1.816,-1.816 0,0 1.816,-0.91 2.727,-1.817 1.816,-1.816 1.816,-1.816 0,-5.449 -1.817,-3.633 -1.817,-3.633 0,-5.449 1.816,-0.91 3.632,-1.817 4.539,-1.817 2.726,0.907 3.632,-0.91 1.816,-1.816 -1.816,-0.91 -0.906,-4.543 0.91,-6.359 1.817,-1.817 2.723,-1.817 7.266,2.726 2.722,1.817 8.172,4.539 14.531,7.266 19.074,6.355 37.238,14.531 49.047,20.887 6.355,3.632 16.348,9.085 21.797,12.718 6.355,2.723 11.808,6.356 12.715,7.266 2.726,3.633 0.91,8.172 -3.633,10.898 -5.449,3.633 -4.543,4.539 2.726,4.539 10.899,0 16.348,4.543 16.348,13.625 0,3.633 -1.816,5.45 -11.809,15.442 -21.796,19.98 -42.687,36.328 -48.136,36.328 -1.817,0 -4.543,1.816 -7.266,3.633 -4.543,5.449 -7.266,6.359 -14.531,8.176 -7.266,0.906 -12.715,2.722 -48.137,19.98 -25.433,12.715 -29.973,14.531 -31.789,19.074 -1.816,1.817 -3.633,4.543 -5.449,4.543 z m -24.519,-22.707 h 1.816 c 1.816,-0.91 1.816,-1.816 -0.91,-2.726 -5.449,-2.723 -7.266,-11.805 -2.723,-18.164 l 1.817,-3.633 c -2.727,0.906 -9.082,4.539 -10.899,6.355 -4.543,7.27 -2.726,13.625 5.449,17.258 1.817,0.91 3.633,0.91 5.45,0.91 z m 30.879,-0.91 c 1.816,0 5.449,-1.816 14.531,-9.082 29.972,-24.523 60.855,-45.414 91.734,-62.668 4.543,-2.727 7.266,-4.543 7.266,-6.359 0,-4.539 -1.817,-3.633 -29.063,12.714 -36.332,21.801 -88.101,60.856 -86.285,64.489 0.91,0.906 0.91,0.906 1.817,0.906 z m -22.708,0 c 0.911,0 1.817,0 2.727,-0.906 5.449,-2.727 9.082,-7.266 9.082,-10.899 0,-5.453 -0.91,-8.175 -4.543,-9.992 -4.539,-1.816 -8.172,-2.726 -10.898,-1.816 -1.817,0.906 -1.817,0.906 -0.907,0.906 0.907,0 3.633,1.816 5.45,4.543 3.632,4.543 3.632,10.898 0.906,15.441 -1.817,1.817 -2.723,2.723 -1.817,2.723 z m 125.34,-32.695 c 0.907,0 1.817,-2.727 2.723,-8.176 0.91,-7.266 8.176,-16.348 19.984,-26.34 17.254,-15.437 19.075,-16.348 19.075,-19.07 0,-2.727 -3.637,-3.633 -4.543,0 0,0.906 -5.45,6.355 -11.809,11.804 -14.531,10.899 -18.164,14.532 -21.797,20.891 -3.633,6.359 -6.359,18.164 -4.543,19.981 0,0 0,0.91 0.91,0.91 z M 303.547,209.836 c 0.906,0 2.726,-0.907 5.449,-2.723 4.543,-2.727 9.082,-7.269 18.164,-20.891 14.531,-20.89 19.074,-24.523 30.883,-24.523 7.266,0 9.988,0.906 16.348,4.543 7.265,3.633 8.175,3.633 11.808,1.816 6.356,-2.726 5.449,-4.543 -0.91,-3.636 -4.539,0.91 -6.359,0 -10.898,-2.723 -4.543,-2.727 -7.266,-2.727 -13.625,-3.633 -16.348,-0.91 -20.891,2.723 -40.871,31.789 -5.45,6.356 -9.989,11.805 -12.715,13.625 l -5.45,3.633 c -0.91,0.906 0,0.906 0.907,1.816 0,0.907 0,0.907 0.91,0.907 z m 115.348,-51.77 h 4.543 c 16.347,0 19.98,-0.91 19.98,-2.726 0,-1.817 -3.633,-1.817 -15.441,-1.817 -16.348,0.91 -21.797,0 -47.227,-6.355 -19.074,-5.449 -23.617,-8.176 -21.801,-13.625 1.817,-5.449 10.899,-9.082 18.164,-8.176 13.625,0.91 23.617,1.816 27.25,0.91 6.356,-2.726 2.723,-3.633 -8.175,-3.633 -6.356,0 -14.532,-0.91 -19.075,-0.91 -7.265,-0.906 -9.082,0 -13.621,1.817 -10.898,4.543 -11.808,17.257 -0.91,21.8 1.816,0.907 13.625,4.539 25.434,7.266 17.254,4.539 20.886,5.449 30.879,5.449 z" /></g></g></svg>
