<?xml version="1.0" encoding="UTF-8" standalone="no"?>
<svg
   xmlns:dc="http://purl.org/dc/elements/1.1/"
   xmlns:cc="http://creativecommons.org/ns#"
   xmlns:rdf="http://www.w3.org/1999/02/22-rdf-syntax-ns#"
   xmlns:svg="http://www.w3.org/2000/svg"
   xmlns="http://www.w3.org/2000/svg"
   xmlns:sodipodi="http://sodipodi.sourceforge.net/DTD/sodipodi-0.dtd"
   xmlns:inkscape="http://www.inkscape.org/namespaces/inkscape"
   viewBox="0 0 265.03934 253.13466"
   height="253.13466"
   width="265.03934"
   xml:space="preserve"
   id="svg4622"
   version="1.1"
   sodipodi:docname="Zeichen_101-10_-_Flugbetrieb,_Aufstellung_rechts,_StVO_2017.svg"
   inkscape:version="1.0.2-2 (e86c870879, 2021-01-15)"><sodipodi:namedview
     pagecolor="#ffffff"
     bordercolor="#666666"
     borderopacity="1"
     objecttolerance="10"
     gridtolerance="10"
     guidetolerance="10"
     inkscape:pageopacity="0"
     inkscape:pageshadow="2"
     inkscape:window-width="1920"
     inkscape:window-height="1001"
     id="namedview11"
     showgrid="false"
     inkscape:zoom="1.0001474"
     inkscape:cx="124.9306"
     inkscape:cy="-3.7513584"
     inkscape:window-x="-9"
     inkscape:window-y="-9"
     inkscape:window-maximized="1"
     inkscape:current-layer="g4632" /><metadata
     id="metadata4628"><rdf:RDF><cc:Work
         rdf:about=""><dc:format>image/svg+xml</dc:format><dc:type
           rdf:resource="http://purl.org/dc/dcmitype/StillImage" /><dc:title /></cc:Work></rdf:RDF></metadata><defs
     id="defs4626" /><g
     transform="matrix(1.3333333,0,0,-1.3333333,-298.64865,368.05999)"
     id="g4630"><g
       id="g4632"><path
         id="path4640"
         style="fill:#000000;fill-opacity:1;fill-rule:nonzero;stroke:none"
         d="m 283.68,96.162 17.285,-9.968 11.848,100.386 60.316,-31.347 3.309,-34.2 10.375,-6.003 11.054,35.125 24.899,27.156 -10.375,5.988 -31.278,-14.234 -57.3,36.539 81.011,60.472 -17.289,9.969 -103.972,-45.262 c -9.836,5.915 -19.735,11.762 -29.672,17.5 -12.411,7.165 -25.391,7.957 -28.981,1.754 -3.586,-6.238 3.59,-17.074 16.004,-24.234 9.957,-5.742 19.938,-11.402 29.992,-16.941" /></g></g></svg>
