<?xml version="1.0" encoding="UTF-8" standalone="no"?>
<svg
   xmlns:dc="http://purl.org/dc/elements/1.1/"
   xmlns:cc="http://creativecommons.org/ns#"
   xmlns:rdf="http://www.w3.org/1999/02/22-rdf-syntax-ns#"
   xmlns:svg="http://www.w3.org/2000/svg"
   xmlns="http://www.w3.org/2000/svg"
   xmlns:sodipodi="http://sodipodi.sourceforge.net/DTD/sodipodi-0.dtd"
   xmlns:inkscape="http://www.inkscape.org/namespaces/inkscape"
   viewBox="0 0 285.83322 301.05923"
   height="301.05923"
   width="285.83322"
   xml:space="preserve"
   version="1.1"
   id="svg4494"
   sodipodi:docname="Zeichen_101-54_-_Unzureichendes_Lichtraumprofil,_StVO_2017.svg"
   inkscape:version="1.0.2-2 (e86c870879, 2021-01-15)"><sodipodi:namedview
     pagecolor="#ffffff"
     bordercolor="#666666"
     borderopacity="1"
     objecttolerance="10"
     gridtolerance="10"
     guidetolerance="10"
     inkscape:pageopacity="0"
     inkscape:pageshadow="2"
     inkscape:window-width="1920"
     inkscape:window-height="1001"
     id="namedview23"
     showgrid="false"
     inkscape:zoom="1.0001474"
     inkscape:cx="159.30675"
     inkscape:cy="61.581629"
     inkscape:window-x="-9"
     inkscape:window-y="-9"
     inkscape:window-maximized="1"
     inkscape:current-layer="g4504" /><metadata
     id="metadata4500"><rdf:RDF><cc:Work
         rdf:about=""><dc:format>image/svg+xml</dc:format><dc:type
           rdf:resource="http://purl.org/dc/dcmitype/StillImage" /><dc:title /></cc:Work></rdf:RDF></metadata><defs
     id="defs4498" /><g
     transform="matrix(1.25,0,0,-1.25,-264.2725,433.393)"
     id="g4502"><g
       id="g4504"><path
         id="path4512"
         style="fill:#000000;fill-opacity:1;fill-rule:evenodd;stroke:none"
         d="m 231.332,146.562 h 96.109 l 0.036,87.098 c 0,3.035 -4.356,8.043 -7.899,8.043 l -80.34,-0.074 c -3.675,0 -7.84,-4.543 -7.84,-7.668 z" /><path
         id="path4514"
         style="fill:#000000;fill-opacity:1;fill-rule:evenodd;stroke:none"
         d="m 232.793,144.855 h 10.992 l 1.328,-2.008 0.039,-28.214 -2.058,-2.004 -9.926,-0.125 -1.703,1.711 0.082,29.25 z" /><path
         id="path4516"
         style="fill:#000000;fill-opacity:1;fill-rule:evenodd;stroke:none"
         d="m 248.824,144.66 -1.25,-1.387 -0.086,-29.25 1.711,-1.715 9.922,0.121 2.07,2.008 -0.015,9.239 1.133,1.187 7.828,0.043 0.011,-0.367 1.094,0.023 c 0.031,-0.781 4.375,-4.765 8.375,-4.765 v 0.027 c 4,0.008 8.321,3.969 8.352,4.754 l 1.097,-0.027 0.024,0.375 7.832,-0.047 1.078,-1.129 -0.023,-9.727 1.703,-1.715 9.922,0.121 2.062,2.008 -0.047,28.215 -1.328,2.008 h -10.988 l -1.254,-1.387 -0.02,-9.242 -1.57,-1.613 -7.379,0.023 0.012,0.375 -1.192,0.016 c 0,1.121 -4.281,4.691 -8.293,4.691 v -0.015 c -4.003,-0.004 -8.277,-3.582 -8.277,-4.704 h -1.191 v -0.386 l -7.383,-0.012 -1.606,1.652 -0.007,8.594 -1.328,2.008 z" /><path
         id="path4518"
         style="fill:#000000;fill-opacity:1;fill-rule:evenodd;stroke:none"
         d="m 315.203,144.89 h 10.996 l 1.328,-2.007 0.039,-28.211 -2.062,-2.008 -9.926,-0.125 -1.699,1.711 0.082,29.254 z" /><path
         id="path4520"
         style="fill:#000000;fill-opacity:1;fill-rule:nonzero;stroke:none"
         d="m 272.488,247.949 c -3.047,8.746 2.321,13.328 7.91,17.801 -4.441,11.98 0.04,20.211 13.352,24.726 -3.543,10.836 -2.273,20.02 12.738,24.457 0.754,12.438 6.254,22.871 27.809,16.586 4.844,22.629 31.715,18.18 35.605,-1.484 5.426,5.641 24.18,1.547 23.735,-15.824 6.023,-0.821 13.222,-4.371 15.328,-16.317 8.816,-0.449 24.867,-4.867 17.308,-29.175 10.731,-2.997 24.563,-22.243 0.493,-34.122 5.246,-15.937 -0.489,-25.593 -17.801,-26.207 -3.758,-14.101 -15.047,-17.839 -28.68,-11.867 -0.695,-4.031 -3.707,-6.168 -8.402,-6.922 l 12.855,-72.695 h -25.715 l 0.989,73.188 c -4.473,1.367 -8.121,3.304 -7.914,7.914 -6.59,-1.645 -13.184,-2.278 -19.778,1.48 v 37.582 c 0,5.336 -6.691,10.629 -10.632,10.629 z" /><path
         id="path4522"
         style="fill:#000000;fill-opacity:1;fill-rule:nonzero;stroke:none"
         d="m 211.418,112.566 h 133.055 v -6.699 H 211.418 Z" /><path
         id="path4524"
         style="fill:#000000;fill-opacity:1;fill-rule:nonzero;stroke:none"
         d="m 347.629,112.586 h 9.301 v -6.7 h -9.336 z" /><path
         id="path4526"
         style="fill:#000000;fill-opacity:1;fill-rule:nonzero;stroke:none"
         d="m 360.02,112.586 h 9.304 v -6.7 h -9.336 z" /><path
         id="path4528"
         style="fill:#000000;fill-opacity:1;fill-rule:nonzero;stroke:none"
         d="m 372.488,112.586 h 9.305 v -6.7 h -9.336 z" /><path
         id="path4530"
         style="fill:#000000;fill-opacity:1;fill-rule:nonzero;stroke:none"
         d="m 384.953,112.586 h 9.305 v -6.7 h -9.336 z" /><path
         id="path4532"
         style="fill:#000000;fill-opacity:1;fill-rule:nonzero;stroke:none"
         d="m 397.422,112.586 h 9.305 v -6.7 h -9.336 z" /><path
         id="path4534"
         style="fill:#000000;fill-opacity:1;fill-rule:nonzero;stroke:none"
         d="m 422.387,112.586 h 9.308 v -6.7 h -9.336 z" /><path
         id="path4536"
         style="fill:#000000;fill-opacity:1;fill-rule:nonzero;stroke:none"
         d="m 409.867,112.586 h 9.309 v -6.7 h -9.336 z" /></g></g></svg>
