<?xml version="1.0" encoding="UTF-8" standalone="no"?>
<svg xmlns:svg="http://www.w3.org/2000/svg" xmlns="http://www.w3.org/2000/svg" viewBox="0 0 601.63623 330.57626" height="330.57626" width="601.63623" xml:space="preserve" version="1.1">
  <defs/>
  <g transform="matrix(1.25 0 0 -1.25 0 330.57625)">
    <g>
      <path style="fill:#fff;fill-opacity:1;fill-rule:nonzero;stroke:none" d="M32.055 264.063c-17.457 0-31.657-14.161-31.657-31.555V31.699c0-17.39 14.2-31.535 31.657-31.535h417.207c17.457 0 31.648 14.145 31.648 31.535v200.809c0 17.394-14.191 31.555-31.648 31.555H32.055z"/>
      <path style="fill:#000;fill-opacity:1;fill-rule:nonzero;stroke:none" d="M32.043 19.668H449.25c6.605 0 11.961 5.336 11.961 11.918v201.039c0 6.582-5.356 11.918-11.961 11.918H32.043c-6.613 0-11.965-5.336-11.965-11.918V31.586c0-6.582 5.352-11.918 11.965-11.918zm.566-11.352c-13.214 0-23.918 10.668-23.918 23.84v199.895c0 13.168 10.704 23.836 23.918 23.836h416.184c13.215 0 23.922-10.668 23.922-23.836V32.156c0-13.172-10.707-23.84-23.922-23.84"/>
      <path style="fill:#000;fill-opacity:1;fill-rule:nonzero;stroke:none" d="M32.055 264.461C14.379 264.461 0 250.121 0 232.508V31.938C0 14.328 14.379 0 32.055 0h417.207c17.672 0 32.047 14.328 32.047 31.938v200.57c0 17.613-14.371 31.953-32.047 31.953H32.055zm0-.398h417.207c17.457 0 31.648-14.161 31.648-31.555V31.938c0-17.391-14.191-31.536-31.648-31.536H32.055C14.598.402.398 14.547.398 31.938v200.57c0 17.394 14.2 31.555 31.657 31.555z"/>
      <path style="fill:#000;fill-opacity:1;fill-rule:nonzero;stroke:none" d="m423.152 175.59 2.27 2.269c1.867-1.855 4.64-2.457 7.121-1.535.832.317 1.25 1.239.93 2.071-.219.593-.766 1-1.391 1.031l-3.414.219c-2.652.168-4.672 2.449-4.496 5.101.133 2.106 1.625 3.883 3.676 4.379 2.984.723 6.132.02 8.543-1.898l-1.996-2.512c-1.633 1.305-3.786 1.777-5.801 1.293-.856-.207-1.395-1.074-1.184-1.93.164-.691.754-1.183 1.457-1.23l3.41-.219c2.657-.164 4.664-2.445 4.5-5.098-.121-1.898-1.328-3.543-3.105-4.215-3.652-1.359-7.754-.48-10.52 2.274zm-4.004 16.68h-3.214v3.203h3.214v-3.203zm0-19.25h-3.214v16.039h3.214V173.02zm-17.66 9.621h6.824c0 1.886-1.527 3.41-3.402 3.41-1.894 0-3.422-1.524-3.422-3.41zm10.039-2.809h-10.039v-.394c0-1.403.856-2.653 2.153-3.168 1.785-.715 3.828-.211 5.078 1.238l2.422-2.086c-2.137-2.5-5.637-3.356-8.696-2.137-2.515 1.008-4.16 3.446-4.16 6.153v3.203c0 3.652 2.961 6.625 6.625 6.625 3.645 0 6.617-2.973 6.617-6.625v-2.809zm-33.093-6.812-5.012 16.039h3.41l3.004-11.235 3.609 11.235h2.414l3.598-11.235 3.016 11.235h3.41l-5.024-16.039h-2.797l-3.421 11.222-3.399-11.222h-2.808zm-21.063 2.57 2.274 2.269c1.863-1.855 4.648-2.457 7.117-1.535.836.317 1.25 1.239.933 2.071-.218.593-.769 1-1.394 1.031l-3.41.219c-2.657.168-4.672 2.449-4.496 5.101.128 2.106 1.621 3.883 3.671 4.379 2.985.723 6.133.02 8.547-1.898l-2.008-2.512c-1.625 1.305-3.761 1.777-5.793 1.293-.855-.207-1.39-1.074-1.183-1.93.164-.691.758-1.183 1.457-1.23l3.414-.219c2.652-.164 4.66-2.445 4.496-5.098-.109-1.898-1.328-3.543-3.105-4.215-3.653-1.359-7.754-.48-10.52 2.274zm-4.012-2.57h-3.203v1.812c-1.886-2.328-5.289-2.687-7.625-.812-1.261 1.031-2.008 2.578-2.008 4.211v10.828h3.215v-9.828c0-1.766 1.438-3.204 3.203-3.204 1.778 0 3.215 1.438 3.215 3.204v9.828h3.203V173.02zm-20.445 7.023h-4.621c-1.105 0-2.004-.902-2.004-2.008 0-1.109.899-2.008 2.004-2.008h2.613c1.098 0 2.008.899 2.008 2.008v2.008zm3.203-7.023h-3.203v1.648c-.57-1.02-1.648-1.648-2.809-1.648h-2.007c-2.657 0-4.817 2.152-4.817 4.804 0 2.668 2.16 4.817 4.817 4.817h4.816v1.601c0 .879-.637 1.633-1.504 1.789-1.129.196-2.293.196-3.422 0-.57-.109-1.054-.472-1.316-.976l-2.535 1.996c.769 1.129 1.953 1.898 3.293 2.137 1.5.253 3.035.253 4.539 0 2.402-.426 4.148-2.512 4.148-4.946V173.02zm-28.883 0v22.453h3.215v-14.039l6.207 7.625h3.817l-5.418-6.219 6.218-9.82h-4.011l-4.215 7.418-2.598-2.809v-4.609h-3.215zm-13.226 0v16.039h3.203v-1.813c1.887 2.328 5.285 2.688 7.621.813v-.012l-2.281-2.809c-1.317 1.176-3.356 1.067-4.531-.261-.524-.594-.809-1.348-.809-2.141v-9.816h-3.203zm-8.031 7.023h-4.606c-1.109 0-2.008-.902-2.008-2.008 0-1.109.899-2.008 2.008-2.008h2.609c1.098 0 1.997.899 1.997 2.008v2.008zm3.203-7.023h-3.203v1.648c-.559-1.02-1.633-1.648-2.809-1.648h-2.008c-2.652 0-4.812 2.152-4.812 4.804 0 2.668 2.16 4.817 4.812 4.817h4.817v1.601c0 .879-.637 1.633-1.493 1.789-1.14.196-2.3.196-3.422 0-.57-.109-1.05-.472-1.316-.976l-2.531 1.996c.754 1.129 1.949 1.898 3.289 2.137 1.504.253 3.039.253 4.531 0 2.403-.426 4.145-2.512 4.145-4.946V173.02zm-27.071 12.035h5.223c1.984 0 3.606 1.613 3.606 3.609 0 1.984-1.622 3.606-3.606 3.606h-5.223v-7.215zm-3.402-12.035v22.453h8.82c3.762 0 6.825-3.047 6.825-6.809 0-3.773-3.063-6.824-6.825-6.824h-5.418v-8.82h-3.402zm-16.047 0h-2.004c-2 0-3.609 1.613-3.609 3.609v9.816h-1.602v2.614h1.602v4.812h3.211v-4.812h2.402v-2.614h-2.402v-9.422c0-.546.449-.996 1-.996h1.402v-3.007zm-11.625 19.25h-3.215v3.203h3.215v-3.203zm0-19.25h-3.215v16.039h3.215V173.02zm-30.484 0v16.039h3.203v-1.813c1.879 2.328 5.289 2.688 7.613.813.363-.297.692-.637.965-1.008 2.098 2.578 5.891 2.949 8.469.855 1.394-1.14 2.203-2.851 2.203-4.66V173.02h-3.199v9.82c0 1.777-1.438 3.211-3.215 3.211-1.766 0-3.203-1.434-3.203-3.211v-9.82h-3.215v9.82c0 1.777-1.438 3.211-3.215 3.211-1.766 0-3.203-1.434-3.203-3.211v-9.82"/>
      <path style="fill:#000;fill-opacity:1;fill-rule:nonzero;stroke:none" d="M393.875 137.723h-3.41v22.453h3.41v-22.453zm-8.629 0h-3.402v22.453h3.402v-22.453zm-8.625 0h-3.398v22.453h3.398v-22.453zm-8.621 0h-3.398v22.453H368v-22.453zm-8.621 0h-3.41v22.453h3.41v-22.453zm-8.621 0h-3.41v22.453h3.41v-22.453zm-8.633 0h-3.398v22.453h3.398v-22.453zm-8.621 0h-3.399v22.453h3.399v-22.453zm-8.621 0h-3.399v22.453h3.399v-22.453zm-8.621 0h-3.41v22.453h3.41v-22.453zm-8.621 0h-3.411v22.453h3.411v-22.453zm-8.621 0h-3.411v22.453h3.411v-22.453zm-19.461 0h-3.211v3.203h3.211v-3.203zm-14.039 0v16.039h3.214v-1.813c1.875 2.328 5.286 2.688 7.614.813l-2.274-2.821c-1.324 1.176-3.355 1.067-4.527-.261-.527-.594-.813-1.348-.813-2.129v-9.828h-3.214zm-22.059 0v22.453h3.203l10.234-16.035v16.035h3.411v-22.453h-3.211l-10.223 16.039v-16.039"/>
      <path style="fill:#000;fill-opacity:1;fill-rule:nonzero;stroke:none" d="M374.824 116.859h-8.019v8.032h8.019v-8.032zm0-48.128h-8.019v40.113h8.019V68.731zm-44.117 24.066h17.047c0 4.703-3.828 8.523-8.524 8.523-4.714 0-8.523-3.82-8.523-8.523zm25.063-7.02h-25.063v-1c0-3.488 2.117-6.625 5.355-7.918 4.461-1.777 9.563-.527 12.68 3.114l6.086-5.219c-5.363-6.254-14.094-8.395-21.75-5.344-6.273 2.512-10.398 8.602-10.398 15.367v8.02c0 9.137 7.402 16.551 16.55 16.551 9.137 0 16.54-7.414 16.54-16.551v-7.02zm-64.176-17.046v40.113h8.019v-4.531c4.703 5.812 13.227 6.722 19.039 2.019 0 0 .008 0 .008-.012l-5.691-7.031c-3.313 2.953-8.379 2.656-11.332-.656-1.305-1.473-2.028-3.367-2.028-5.332v-24.57h-8.019.004zm-25.063 0v33.597h-4.015v6.516h4.015v6.012c0 5.539 4.485 10.035 10.024 10.035h6.011v-7.524h-5.507c-1.391 0-2.512-1.133-2.512-2.511v-6.012h8.019v-6.516h-8.019V68.731"/>
      <path style="fill:#000;fill-opacity:1;fill-rule:nonzero;stroke:none" d="M162.797 206.664c0-8.348-6.766-15.105-15.102-15.105s-15.093 6.757-15.093 15.105c0 8.336 6.757 15.102 15.093 15.102s15.102-6.766 15.102-15.102zm-26.422-81.172v11.332H98.621c0 7.293 5.922 13.207 13.215 13.207h24.539v22.649c0 7.308 5.91 13.218 13.207 13.218 7.305 0 13.215-5.91 13.215-13.218v-50.961c0-7.293-5.91-13.203-13.215-13.203h-42.879c-1.73 0-3.234-1.188-3.664-2.852L90.02 53.867c-1.985-7.898-9.872-12.801-17.825-11.078l15.246 70.793c1.493 6.953 7.649 11.91 14.766 11.91h34.168zm-24.461-24.535h7.973c-7.305-19.523 2.613-41.277 22.148-48.57 19.524-7.293 41.274 2.621 48.57 22.144 7.02 18.793-1.878 39.785-20.261 47.813v8.109c23.582-8.336 35.945-34.215 27.609-57.808-8.336-23.582-34.223-35.942-57.805-27.606-22.859 8.082-35.308 32.731-28.234 55.918"/>
    </g>
  </g>
</svg>