<?xml version="1.0" encoding="UTF-8" standalone="no"?>
<svg
   xmlns:dc="http://purl.org/dc/elements/1.1/"
   xmlns:cc="http://creativecommons.org/ns#"
   xmlns:rdf="http://www.w3.org/1999/02/22-rdf-syntax-ns#"
   xmlns:svg="http://www.w3.org/2000/svg"
   xmlns="http://www.w3.org/2000/svg"
   xmlns:sodipodi="http://sodipodi.sourceforge.net/DTD/sodipodi-0.dtd"
   xmlns:inkscape="http://www.inkscape.org/namespaces/inkscape"
   viewBox="0 0 550.92749 216.235"
   height="216.235"
   width="550.92749"
   xml:space="preserve"
   version="1.1"
   id="svg3683"
   sodipodi:docname="Zeichen_101-52_-_Splitt,_Schotter,_StVO_2017.svg"
   inkscape:version="1.0.2-2 (e86c870879, 2021-01-15)"><sodipodi:namedview
     pagecolor="#ffffff"
     bordercolor="#666666"
     borderopacity="1"
     objecttolerance="10"
     gridtolerance="10"
     guidetolerance="10"
     inkscape:pageopacity="0"
     inkscape:pageshadow="2"
     inkscape:window-width="1920"
     inkscape:window-height="1001"
     id="namedview22"
     showgrid="false"
     inkscape:zoom="1.0001474"
     inkscape:cx="274.9705"
     inkscape:cy="119.93177"
     inkscape:window-x="-9"
     inkscape:window-y="-9"
     inkscape:window-maximized="1"
     inkscape:current-layer="g3693" /><metadata
     id="metadata3689"><rdf:RDF><cc:Work
         rdf:about=""><dc:format>image/svg+xml</dc:format><dc:type
           rdf:resource="http://purl.org/dc/dcmitype/StillImage" /><dc:title /></cc:Work></rdf:RDF></metadata><defs
     id="defs3687" /><g
     transform="matrix(1.25,0,0,-1.25,-148.60875,321.84)"
     id="g3691"><g
       id="g3693"><path
         id="path3701"
         style="fill:#000000;fill-opacity:1;fill-rule:nonzero;stroke:none"
         d="m 118.887,84.484 6.961,12.086 h 126 c -4.153,0 -7.547,3.379 -7.547,7.527 v 27.657 h 30.183 v -27.657 c 0,-4.148 -3.379,-7.527 -7.546,-7.527 h 285.714 l 6.977,-12.086" /><path
         id="path3703"
         style="fill:#000000;fill-opacity:1;fill-rule:nonzero;stroke:none"
         d="m 274.484,174.496 c 0,8.336 -6.757,15.094 -15.093,15.094 -8.332,0 -15.09,-6.758 -15.09,-15.094 0,-8.332 6.758,-15.074 15.09,-15.074 8.336,0 15.093,6.742 15.093,15.074 z m -55.738,82.976 h 35.613 c 5.016,0 9.539,-2.976 11.528,-7.546 l 19.894,-45.707 c 1.403,-3.243 3.176,-6.297 5.293,-9.106 l 3.008,-4.012 c 1.961,-2.621 3.023,-5.8 3.023,-9.058 v -32.684 c 0,-6.961 -5.632,-12.562 -12.558,-12.562 H 149.07 l 37.746,65.355 h 86.403 l -17.285,39.719 c -0.801,1.836 -2.606,3.023 -4.614,3.023 h -39.828" /><path
         id="path3705"
         style="fill:#000000;fill-opacity:1;fill-rule:nonzero;stroke:none"
         d="m 300.734,100.582 -0.679,4.797 136.23,19.136 0.676,-4.769" /><path
         id="path3707"
         style="fill:#000000;fill-opacity:1;fill-rule:nonzero;stroke:none"
         d="m 324.867,115.07 -1.804,4.461 127.558,51.555 1.805,-4.473" /><path
         id="path3709"
         style="fill:#000000;fill-opacity:1;fill-rule:nonzero;stroke:none"
         d="m 300.734,109.347 -2.64,4.055 87.715,56.961 2.636,-4.043" /><path
         id="path3711"
         style="fill:#000000;fill-opacity:1;fill-rule:nonzero;stroke:none"
         d="m 406.918,181.039 -9.66,4.508 4.504,9.675 12.285,4.473 9.676,-4.519 -4.524,-9.661" /><path
         id="path3713"
         style="fill:#000000;fill-opacity:1;fill-rule:nonzero;stroke:none"
         d="m 445.543,184.265 -4.953,4.954 4.953,4.953 h 8.578 l 4.969,-4.953 -4.969,-4.954" /><path
         id="path3715"
         style="fill:#000000;fill-opacity:1;fill-rule:nonzero;stroke:none"
         d="m 463.645,148.867 -4.954,4.937 4.954,4.954 h 8.593 l 4.953,-4.954 -4.953,-4.937" /><path
         id="path3717"
         style="fill:#000000;fill-opacity:1;fill-rule:nonzero;stroke:none"
         d="m 421.406,129.144 -8.285,3.86 3.859,8.3 10.54,3.829 8.269,-3.875 -3.855,-8.27" /><path
         id="path3719"
         style="fill:#000000;fill-opacity:1;fill-rule:nonzero;stroke:none"
         d="m 453.582,106.215 -5.387,5.382 5.387,5.403 h 9.336 l 5.402,-5.403 -5.402,-5.382" /><path
         id="path3721"
         style="fill:#000000;fill-opacity:1;fill-rule:nonzero;stroke:none"
         d="m 488.98,104.625 -6.355,2.945 2.977,6.344 8.07,2.93 6.359,-2.946 -2.98,-6.359" /><path
         id="path3723"
         style="fill:#000000;fill-opacity:1;fill-rule:nonzero;stroke:none"
         d="m 472.887,120.703 -9.66,4.508 4.507,9.66 12.297,4.488 9.66,-4.519 -4.503,-9.661" /></g></g></svg>
