<?xml version="1.0" encoding="UTF-8" standalone="no"?>
<svg
   xmlns:dc="http://purl.org/dc/elements/1.1/"
   xmlns:cc="http://creativecommons.org/ns#"
   xmlns:rdf="http://www.w3.org/1999/02/22-rdf-syntax-ns#"
   xmlns:svg="http://www.w3.org/2000/svg"
   xmlns="http://www.w3.org/2000/svg"
   xmlns:sodipodi="http://sodipodi.sourceforge.net/DTD/sodipodi-0.dtd"
   xmlns:inkscape="http://www.inkscape.org/namespaces/inkscape"
   viewBox="0 0 546.17743 241.3325"
   height="241.3325"
   width="546.17743"
   xml:space="preserve"
   version="1.1"
   id="svg3571"
   sodipodi:docname="Zeichen_101-53_-_Ufer,_StVO_2017.svg"
   inkscape:version="1.0.2-2 (e86c870879, 2021-01-15)"><sodipodi:namedview
     pagecolor="#ffffff"
     bordercolor="#666666"
     borderopacity="1"
     objecttolerance="10"
     gridtolerance="10"
     guidetolerance="10"
     inkscape:pageopacity="0"
     inkscape:pageshadow="2"
     inkscape:window-width="1920"
     inkscape:window-height="1001"
     id="namedview18"
     showgrid="false"
     inkscape:zoom="1.0001474"
     inkscape:cx="277.51425"
     inkscape:cy="-28.926369"
     inkscape:window-x="-9"
     inkscape:window-y="-9"
     inkscape:window-maximized="1"
     inkscape:current-layer="g3581" /><metadata
     id="metadata3577"><rdf:RDF><cc:Work
         rdf:about=""><dc:format>image/svg+xml</dc:format><dc:type
           rdf:resource="http://purl.org/dc/dcmitype/StillImage" /><dc:title /></cc:Work></rdf:RDF></metadata><defs
     id="defs3575" /><g
     transform="matrix(1.25,0,0,-1.25,-146.065,342.885)"
     id="g3579"><g
       id="g3581"><path
         id="path3589"
         style="fill:#000000;fill-opacity:1;fill-rule:nonzero;stroke:none"
         d="m 387.91,179.98 c -2.445,-8.746 2.66,-17.82 11.406,-20.269 8.747,-2.446 17.821,2.66 20.27,11.406 2.445,8.75 -2.66,17.824 -11.406,20.269 -8.75,2.446 -17.825,-2.66 -20.27,-11.406 z" /><path
         id="path3591"
         style="fill:#000000;fill-opacity:1;fill-rule:evenodd;stroke:none"
         d="m 370.145,250.164 c -0.571,1.215 -1.297,2.32 -3.102,2.707 l -76.613,21.437 -46.535,-19.582 c -0.672,-0.769 -1.075,-1.39 -1.34,-1.937 l -7.641,-26.75 c 0.277,-1.731 0.742,-3.278 2.191,-3.828 l 8.836,-2.473 c 7.329,26.191 46.067,15.414 38.723,-10.832 l 99.492,-27.836 c 7.297,26.09 46.344,15.274 39.016,-10.918 l 10.781,-3.016 c 1.039,0.176 1.754,-0.457 3.832,2.29 l 5.512,19.234 c -0.137,1.93 -0.734,2.816 -1.324,3.715 l -53.399,24.969 z" /><path
         id="path3593"
         style="fill:#000000;fill-opacity:1;fill-rule:nonzero;stroke:none"
         d="m 249.621,218.676 c -2.445,-8.747 2.66,-17.821 11.406,-20.266 8.746,-2.449 17.821,2.66 20.27,11.406 2.445,8.746 -2.66,17.82 -11.406,20.266 -8.746,2.449 -17.821,-2.66 -20.27,-11.406 z" /><path
         id="path3595"
         style="fill:#ffffff;fill-opacity:1;fill-rule:evenodd;stroke:none"
         d="m 380.645,219.242 -13.817,24.172 c -0.328,0.484 -0.523,1.082 -1.301,1.18 l -33.937,9.496 -6.453,-23.067 53.082,-14.851 c 2.246,0.234 2.855,1.363 2.426,3.07 z" /><path
         id="path3597"
         style="fill:#ffffff;fill-opacity:1;fill-rule:evenodd;stroke:none"
         d="m 274.047,251.609 20.961,11.895 c 0.531,0.246 1.012,0.652 1.73,0.332 l 28.547,-7.985 -6.453,-23.066 -48.656,13.613 c -2.172,1.102 1.726,3.36 3.871,5.211 z" /><path
         id="path3599"
         style="fill:#000000;fill-opacity:1;fill-rule:evenodd;stroke:none"
         d="M 259.25,189.515 V 81.242 H 116.852 l 62.586,108.281 79.812,-0.004 z" /><path
         id="path3601"
         style="fill:#000000;fill-opacity:1;fill-rule:evenodd;stroke:none"
         d="m 282.957,128.554 c -6.66,-0.015 -11.57,-2.253 -16.402,-4.871 l -0.219,-13.484 c 9.508,3.973 19.074,7.883 34.676,0 9.34,-3.297 18.582,-6.875 31.535,0 11.316,5.516 22.976,8.512 36.297,0 8.91,-3.891 18.101,-6.879 30.492,0 5.598,2.531 11.215,4.195 16.812,4.543 4.926,0.023 10.481,-1.172 17.145,-4.543 9.344,-3.297 18.586,-6.875 31.539,0 11.313,5.516 23.004,8.512 36.324,0 8.91,-3.891 18.102,-6.879 30.492,0 0.887,-0.215 5.477,2.207 8.391,3.746 0.586,0.309 -3.851,7.531 -5.586,10.922 -11.879,-4.402 -23.59,-6.535 -34.125,-1.184 -12.219,6.653 -23.578,5.461 -34.453,0 -10.797,-4.589 -21.043,-4.297 -30.848,-0.109 v 0.109 c -0.82,0.313 -1.613,0.59 -2.422,0.883 -17.003,6.926 -25.496,3.582 -33.738,-0.883 v -0.191 c -10.637,-3.41 -21.484,-4.566 -30.847,0.191 -12.223,6.653 -23.582,5.461 -34.454,0 -10.898,-4.632 -21.238,-4.297 -31.125,0 -8.078,3.559 -14.304,4.887 -19.484,4.871 z" /><path
         id="path3603"
         style="fill:#000000;fill-opacity:1;fill-rule:evenodd;stroke:none"
         d="m 283.316,104.082 c -6.66,-0.016 -11.574,-2.254 -16.402,-4.871 l -0.223,-13.485 c 9.512,3.973 19.075,7.879 34.676,0 9.344,-3.297 18.586,-6.875 31.535,0 11.317,5.512 22.981,8.508 36.301,0 8.906,-3.894 18.098,-6.882 30.488,0 5.602,2.528 11.215,4.196 16.817,4.543 4.922,0.02 10.476,-1.175 17.144,-4.543 9.34,-3.297 18.582,-6.875 31.536,0 11.316,5.512 23.007,8.508 36.324,0 8.91,-3.894 18.101,-6.882 30.492,0 0.887,-0.218 5.262,2.719 8.394,3.743 6.942,2.273 14.981,-1.02 13.125,1.804 -1.843,2.809 -5.296,10.238 -6.89,11.996 -1.07,1.184 -9.094,-2.203 -11.82,-2.875 -11.883,-4.402 -23.59,-6.539 -34.125,-1.183 -12.219,6.652 -23.579,5.461 -34.454,0 -10.8,-4.59 -21.043,-4.297 -30.851,-0.11 v 0.11 c -0.82,0.308 -1.613,0.59 -2.418,0.883 -17.008,6.925 -25.496,3.582 -33.738,-0.883 v -0.192 c -10.641,-3.41 -21.489,-4.566 -30.852,0.192 -12.219,6.652 -23.578,5.461 -34.453,0 -10.899,-4.633 -21.234,-4.297 -31.125,0 -8.078,3.554 -14.305,4.883 -19.481,4.871 z" /></g></g></svg>
