<?xml version="1.0" encoding="UTF-8" standalone="no"?>
<svg
   xmlns:dc="http://purl.org/dc/elements/1.1/"
   xmlns:cc="http://creativecommons.org/ns#"
   xmlns:rdf="http://www.w3.org/1999/02/22-rdf-syntax-ns#"
   xmlns:svg="http://www.w3.org/2000/svg"
   xmlns="http://www.w3.org/2000/svg"
   xmlns:sodipodi="http://sodipodi.sourceforge.net/DTD/sodipodi-0.dtd"
   xmlns:inkscape="http://www.inkscape.org/namespaces/inkscape"
   viewBox="0 0 556.72376 392.20251"
   height="392.20251"
   width="556.72375"
   xml:space="preserve"
   version="1.1"
   id="svg4599"
   sodipodi:docname="Zeichen_101-15_-_Steinschlag,_StVO_2017.svg"
   inkscape:version="1.0.2-2 (e86c870879, 2021-01-15)"><sodipodi:namedview
     pagecolor="#ffffff"
     bordercolor="#666666"
     borderopacity="1"
     objecttolerance="10"
     gridtolerance="10"
     guidetolerance="10"
     inkscape:pageopacity="0"
     inkscape:pageshadow="2"
     inkscape:window-width="1920"
     inkscape:window-height="1001"
     id="namedview11"
     showgrid="false"
     inkscape:zoom="1.0001474"
     inkscape:cx="279.068"
     inkscape:cy="120.47863"
     inkscape:window-x="-9"
     inkscape:window-y="-9"
     inkscape:window-maximized="1"
     inkscape:current-layer="g4609" /><metadata
     id="metadata4605"><rdf:RDF><cc:Work
         rdf:about=""><dc:format>image/svg+xml</dc:format><dc:type
           rdf:resource="http://purl.org/dc/dcmitype/StillImage" /><dc:title /></cc:Work></rdf:RDF></metadata><defs
     id="defs4603" /><g
     transform="matrix(1.25,0,0,-1.25,-144.51125,492.29)"
     id="g4607"><g
       id="g4609"><path
         id="path4617"
         style="fill:#000000;fill-opacity:1;fill-rule:nonzero;stroke:none"
         d="m 115.609,80.07 11.621,20.106 h 92.399 L 209.57,110.238 H 197.5 l -12.066,22.125 28.168,30.168 16.093,-2.02 12.063,6.043 28.164,-10.05 18.098,-16.094 -2.016,-24.156 -32.176,-16.078 h 76.426 l 14.074,76.445 10.082,8.015 -8.055,80.473 12.063,8.031 -8.055,12.071 8.055,56.316 40.215,19.723 162.355,-281.18 m -317.226,106.586 22.129,14.078 6.035,20.133 -14.074,14.09 -8.055,-6.059 -8.039,6.059 -20.102,-16.094 2.004,-12.074 2.004,-14.086 z m 74.429,86.484 -18.101,4.039 -24.133,-20.117 -2.027,-26.16 16.093,-14.074 8.055,12.07 h 8.039 l 17.106,20.117 -5.032,6.043 z m 34.192,70.391 -42.235,-4.008 -12.07,24.141 14.074,10.051 2.008,14.074 32.195,6.043 16.079,-10.063 4.023,2.016 12.07,-10.051 z" /></g></g></svg>
