<?xml version="1.0" encoding="UTF-8" standalone="no"?>
<svg
   xmlns:dc="http://purl.org/dc/elements/1.1/"
   xmlns:cc="http://creativecommons.org/ns#"
   xmlns:rdf="http://www.w3.org/1999/02/22-rdf-syntax-ns#"
   xmlns:svg="http://www.w3.org/2000/svg"
   xmlns="http://www.w3.org/2000/svg"
   xmlns:sodipodi="http://sodipodi.sourceforge.net/DTD/sodipodi-0.dtd"
   xmlns:inkscape="http://www.inkscape.org/namespaces/inkscape"
   viewBox="0 0 563.76001 289.93188"
   height="289.93188"
   width="563.76001"
   xml:space="preserve"
   version="1.1"
   id="svg4426"
   sodipodi:docname="Sinnbild Bewegliche Brücke.svg"
   inkscape:version="1.0.2-2 (e86c870879, 2021-01-15)"><sodipodi:namedview
     pagecolor="#ffffff"
     bordercolor="#666666"
     borderopacity="1"
     objecttolerance="10"
     gridtolerance="10"
     guidetolerance="10"
     inkscape:pageopacity="0"
     inkscape:pageshadow="2"
     inkscape:window-width="1920"
     inkscape:window-height="1001"
     id="namedview15"
     showgrid="false"
     inkscape:zoom="0.96352584"
     inkscape:cx="282.798"
     inkscape:cy="134.9672"
     inkscape:window-x="-9"
     inkscape:window-y="-9"
     inkscape:window-maximized="1"
     inkscape:current-layer="g4436"
     inkscape:document-rotation="0" /><metadata
     id="metadata4432"><rdf:RDF><cc:Work
         rdf:about=""><dc:format>image/svg+xml</dc:format><dc:type
           rdf:resource="http://purl.org/dc/dcmitype/StillImage" /><dc:title /></cc:Work></rdf:RDF></metadata><defs
     id="defs4430" /><g
     transform="matrix(1.25,0,0,-1.25,-140.78125,386.79625)"
     id="g4434"><g
       id="g4436"><path
         id="path4444"
         style="fill:#000000;fill-opacity:1;fill-rule:evenodd;stroke:none"
         d="m 252.703,120.742 c 8.742,4.734 17.742,8.273 36.539,0 10.067,-4.375 20.586,-4.715 31.68,0 11.07,5.559 22.621,6.773 35.062,0 10.723,-5.449 23.364,-3.258 35.457,1.223 11.973,5.914 21.68,2.953 32.762,-1.223 v -13.727 c -12.109,7.016 -24.219,5.465 -36.328,0 -12.613,-7.007 -21.977,-3.964 -31.047,0 -13.558,8.661 -25.441,5.61 -36.961,0 -13.183,-7 -22.594,-3.359 -32.105,0 -15.879,8.02 -25.59,4.043 -35.27,0 z" /><path
         id="path4446"
         style="fill:#000000;fill-opacity:1;fill-rule:evenodd;stroke:none"
         d="M 431.063,188.136 V 78.004 h 132.57 L 499.93,188.136 c -23.989,-0.007 -48.34,0.004 -68.867,0 z" /><path
         id="path4448"
         style="fill:#000000;fill-opacity:1;fill-rule:evenodd;stroke:none"
         d="m 252.703,95.41 c 8.742,4.73 17.742,8.273 36.539,0 10.067,-4.375 20.586,-4.719 31.68,0 11.07,5.559 22.621,6.769 35.062,0 10.723,-5.453 23.364,-3.262 35.457,1.223 11.973,5.914 21.68,2.953 32.762,-1.223 V 81.679 c -12.109,7.02 -24.219,5.469 -36.328,0 -12.613,-7.003 -21.977,-3.96 -31.047,0 -13.558,8.665 -25.441,5.614 -36.961,0 -13.183,-6.996 -22.594,-3.355 -32.105,0 -15.879,8.024 -25.59,4.043 -35.27,0 z" /><path
         id="path4450"
         style="fill:#000000;fill-opacity:1;fill-rule:evenodd;stroke:none"
         d="M 175.543,188.136 112.625,78.004 h 133.199 v 110.132 z" /><path
         id="path4452"
         style="fill:#000000;fill-opacity:1;fill-rule:evenodd;stroke:none"
         d="m 245.82,188.14 162.95,93.563 -17.622,27.734 c 0,0 -108.761,-61.554 -163.144,-92.332 z" /></g></g></svg>
