<?xml version="1.0" encoding="UTF-8" standalone="no"?>
<svg xmlns:svg="http://www.w3.org/2000/svg" xmlns="http://www.w3.org/2000/svg"
	version="1.1" width="500px" height="420px" viewBox="0 0 500 420" xml:space="preserve">
	<g transform="translate(660,-200)" style="fill:#000000;fill-rule:nonzero;stroke:none;">
		<path d="M -391.2,240.4 A 28.3,28.3 0 1 1 -447.8,240.4 28.3,28.3 0 1 1 -391.2,240.4 z" />
		<path d="M -644.6,606.4 H -582.1 L -537.8,506.0 H -584.7 z" />
		<path d="M -543.7,606.9 H -481.9 L -472.3,555.7 C -492.3,567.4 -505.8,563.1 -518.4,555.9 L -490.8,505.9 H -509.9 z" />
		<path d="M -442.2,606.4 H -378.7 L -388.3,505.8 H -433.5 z" />
		<path d="M -340.9,606.6 -277.9,607.0 -313.1,505.3 -320.1,506.2 C -311.0,525.4 -301.6,546.6 -335.5,565.5 L -351.2,536.1 -353.3,534.4 z" />
		<path d="M -238.5,607.0 H -176.6 L -238.1,505.3 -284.0,505.8 z" />
		<path d="M -433.493,408.332 H -377.307 L -377.048,413.39 -317.409,525.1 C -316.242,543.362 -324.557,550.362 -332.887,557.346 L -405.117,424.494 -474.767,548.962 C -494.45,561.421 -501.688,556.194 -510.237,552.832 L -434.025,414.391 z" />
		<path d="M -503.863,396.57 -433.407,290.774 C -424.819,279.373 -411.869,273.788 -390.541,279.373 L -334.907,324.975 -328.979,335.92 V 379.698 C -334.37,391.143 -342.078,398.922 -354.744,398.85 V 342.532 L -376.861,322.923 V 402.043 H -434.091 V 338.656 L -473.537,396.342 C -484.903,402.706 -495.519,405.317 -503.863,396.57 z" />
	</g>
</svg>